<?xml version="1.0" encoding="UTF-8" standalone="no"?>
<!-- Created with Inkscape (http://www.inkscape.org/) -->

<svg
   xmlns:dc="http://purl.org/dc/elements/1.1/"
   xmlns:cc="http://creativecommons.org/ns#"
   xmlns:rdf="http://www.w3.org/1999/02/22-rdf-syntax-ns#"
   xmlns:svg="http://www.w3.org/2000/svg"
   xmlns="http://www.w3.org/2000/svg"
   xmlns:sodipodi="http://sodipodi.sourceforge.net/DTD/sodipodi-0.dtd"
   xmlns:inkscape="http://www.inkscape.org/namespaces/inkscape"
   width="20pc"
   height="30pc"
   viewBox="0 0 84.666665 127"
   version="1.1"
   id="svg8"
   inkscape:version="0.92.3 (2405546, 2018-03-11)"
   sodipodi:docname="flow_diagram.svg"
   inkscape:export-filename="/home/vanderlei/Documents/paper-isostatic-grav2D/manuscript/figures/flow_diagram.png"
   inkscape:export-xdpi="600"
   inkscape:export-ydpi="600">
  <sodipodi:namedview
     id="base"
     pagecolor="#ffffff"
     bordercolor="#666666"
     borderopacity="1.0"
     inkscape:pageopacity="0.0"
     inkscape:pageshadow="2"
     inkscape:zoom="1.1416667"
     inkscape:cx="145.54745"
     inkscape:cy="240"
     inkscape:document-units="mm"
     inkscape:current-layer="layer1"
     showgrid="false"
     units="pc"
     inkscape:window-width="1299"
     inkscape:window-height="713"
     inkscape:window-x="67"
     inkscape:window-y="27"
     inkscape:window-maximized="1"
     showguides="false" />
  <defs
     id="defs2">
    <marker
       inkscape:isstock="true"
       style="overflow:visible;"
       id="marker4880"
       refX="0.0"
       refY="0.0"
       orient="auto"
       inkscape:stockid="Arrow2Mend">
      <path
         transform="scale(0.6) rotate(180) translate(0,0)"
         d="M 8.7185878,4.0337352 L -2.2072895,0.016013256 L 8.7185884,-4.0017078 C 6.9730900,-1.6296469 6.9831476,1.6157441 8.7185878,4.0337352 z "
         style="fill-rule:evenodd;stroke-width:0.625;stroke-linejoin:round;stroke:#000000;stroke-opacity:1;fill:#000000;fill-opacity:1"
         id="path4878" />
    </marker>
    <marker
       inkscape:stockid="ExperimentalArrow"
       orient="auto-start-reverse"
       refY="3.0"
       refX="5.0"
       id="ExperimentalArrow"
       inkscape:isstock="true">
      <path
         id="path4509"
         d="m 10,3 -10,3 0,-6 z"
         style="fill:context-stroke;stroke:#000000;stroke-opacity:1" />
    </marker>
    <marker
       inkscape:stockid="TriangleOutM"
       orient="auto"
       refY="0.0"
       refX="0.0"
       id="TriangleOutM"
       style="overflow:visible"
       inkscape:isstock="true">
      <path
         id="path4401"
         d="M 5.77,0.0 L -2.88,5.0 L -2.88,-5.0 L 5.77,0.0 z "
         style="fill-rule:evenodd;stroke:#000000;stroke-width:1pt;stroke-opacity:1;fill:#000000;fill-opacity:1"
         transform="scale(0.4)" />
    </marker>
    <marker
       inkscape:stockid="Arrow1Mend"
       orient="auto"
       refY="0.0"
       refX="0.0"
       id="Arrow1Mend"
       style="overflow:visible;"
       inkscape:isstock="true">
      <path
         id="path4265"
         d="M 0.0,0.0 L 5.0,-5.0 L -12.5,0.0 L 5.0,5.0 L 0.0,0.0 z "
         style="fill-rule:evenodd;stroke:#000000;stroke-width:1pt;stroke-opacity:1;fill:#000000;fill-opacity:1"
         transform="scale(0.4) rotate(180) translate(10,0)" />
    </marker>
    <marker
       inkscape:stockid="Arrow1Send"
       orient="auto"
       refY="0.0"
       refX="0.0"
       id="marker4764"
       style="overflow:visible;"
       inkscape:isstock="true">
      <path
         id="path4762"
         d="M 0.0,0.0 L 5.0,-5.0 L -12.5,0.0 L 5.0,5.0 L 0.0,0.0 z "
         style="fill-rule:evenodd;stroke:#000000;stroke-width:1pt;stroke-opacity:1;fill:#000000;fill-opacity:1"
         transform="scale(0.2) rotate(180) translate(6,0)" />
    </marker>
    <marker
       inkscape:stockid="Arrow2Mend"
       orient="auto"
       refY="0.0"
       refX="0.0"
       id="Arrow2Mend"
       style="overflow:visible;"
       inkscape:isstock="true">
      <path
         id="path4283"
         style="fill-rule:evenodd;stroke-width:0.625;stroke-linejoin:round;stroke:#000000;stroke-opacity:1;fill:#000000;fill-opacity:1"
         d="M 8.7185878,4.0337352 L -2.2072895,0.016013256 L 8.7185884,-4.0017078 C 6.9730900,-1.6296469 6.9831476,1.6157441 8.7185878,4.0337352 z "
         transform="scale(0.6) rotate(180) translate(0,0)" />
    </marker>
    <marker
       inkscape:stockid="Arrow1Send"
       orient="auto"
       refY="0.0"
       refX="0.0"
       id="Arrow1Send"
       style="overflow:visible;"
       inkscape:isstock="true">
      <path
         id="path4271"
         d="M 0.0,0.0 L 5.0,-5.0 L -12.5,0.0 L 5.0,5.0 L 0.0,0.0 z "
         style="fill-rule:evenodd;stroke:#000000;stroke-width:1pt;stroke-opacity:1;fill:#000000;fill-opacity:1"
         transform="scale(0.2) rotate(180) translate(6,0)" />
    </marker>
    <marker
       inkscape:stockid="Arrow2Mend"
       orient="auto"
       refY="0"
       refX="0"
       id="marker4698"
       style="overflow:visible"
       inkscape:isstock="true">
      <path
         inkscape:connector-curvature="0"
         id="path4696"
         style="fill:#000000;fill-opacity:1;fill-rule:evenodd;stroke:#000000;stroke-width:0.625;stroke-linejoin:round;stroke-opacity:1"
         d="M 8.7185878,4.0337352 -2.2072895,0.01601326 8.7185884,-4.0017078 c -1.7454984,2.3720609 -1.7354408,5.6174519 -6e-7,8.035443 z"
         transform="scale(-0.6)" />
    </marker>
    <marker
       inkscape:stockid="Arrow2Mend"
       orient="auto"
       refY="0"
       refX="0"
       id="marker4842-9"
       style="overflow:visible"
       inkscape:isstock="true"
       inkscape:collect="always">
      <path
         inkscape:connector-curvature="0"
         id="path4840-2"
         style="fill:#000000;fill-opacity:1;fill-rule:evenodd;stroke:#000000;stroke-width:0.625;stroke-linejoin:round;stroke-opacity:1"
         d="M 8.7185878,4.0337352 -2.2072895,0.01601326 8.7185884,-4.0017078 c -1.7454984,2.3720609 -1.7354408,5.6174519 -6e-7,8.035443 z"
         transform="scale(-0.6)" />
    </marker>
  </defs>
  <metadata
     id="metadata5">
    <rdf:RDF>
      <cc:Work
         rdf:about="">
        <dc:format>image/svg+xml</dc:format>
        <dc:type
           rdf:resource="http://purl.org/dc/dcmitype/StillImage" />
        <dc:title></dc:title>
      </cc:Work>
    </rdf:RDF>
  </metadata>
  <g
     inkscape:label="Layer 1"
     inkscape:groupmode="layer"
     id="layer1"
     transform="translate(0,-169.99999)">
    <g
       id="g3683"
       transform="translate(1.0583333,-41.27502)">
      <g
         id="g1690"
         transform="matrix(0.6,0,0,0.6,-13.928475,209.25503)">
        <g
           word-spacing="normal"
           letter-spacing="normal"
           font-size-adjust="none"
           font-stretch="normal"
           font-weight="normal"
           font-variant="normal"
           font-style="normal"
           stroke-miterlimit="10.433"
           xml:space="preserve"
           transform="matrix(0.12095238,0,0,-0.12095238,-21.166667,63.5)"
           id="g1688"
           style="font-style:normal;font-variant:normal;font-weight:normal;font-stretch:normal;letter-spacing:normal;word-spacing:normal;text-anchor:start;fill:none;fill-opacity:1;fill-rule:evenodd;stroke:#000000;stroke-linecap:butt;stroke-linejoin:miter;stroke-miterlimit:10.43299961;stroke-dasharray:none;stroke-dashoffset:0;stroke-opacity:1"><path
             id="path1680"
             d="m 466.47,408.14 0.21,-0.16 0.2,-0.15 0.2,-0.15 0.2,-0.14 0.21,-0.13 0.2,-0.12 0.2,-0.12 0.2,-0.11 0.21,-0.11 0.2,-0.1 0.2,-0.09 0.2,-0.09 0.2,-0.09 0.21,-0.07 0.2,-0.07 0.2,-0.07 0.2,-0.06 0.2,-0.06 0.4,-0.1 0.4,-0.08 0.39,-0.06 0.4,-0.05 0.39,-0.03 0.39,-0.02 0.38,-0.01 -0.54,1.8 c -0.71,0 -3.05,0 -5.28,2.69 -0.57,0.64 -0.57,0.68 -0.57,1.64 v 10.56 c 0,0.95 0.07,1 0.75,1.69 2,2.04 4.6,2.34 5.69,2.34 3.33,0 6.13,-3.03 6.13,-9.31 0,-7.03 -3.49,-9.61 -6.72,-9.61 l 0.54,-1.8 c 7.47,0 12.55,4.49 12.55,11.41 0,6.62 -4.53,11.31 -11.7,11.31 -3.74,0 -6.38,-1.55 -7.53,-2.44 v 2.44 l -8.82,-0.41 v -2.34 c 3.1,0 3.44,0 3.44,-1.89 v -25.11 h -3.44 v -2.34 c 1.39,0.06 4.39,0.15 6.28,0.15 1.94,0 4.88,-0.09 6.27,-0.15 v 2.34 h -3.44 z"
             inkscape:connector-curvature="0"
             style="fill:#000000;stroke-width:0" /><path
             id="path1682"
             d="m 499.7,450.34 -0.61,-0.45 -0.58,-0.46 -0.55,-0.47 -0.53,-0.49 -0.5,-0.5 -0.47,-0.51 -0.45,-0.53 -0.42,-0.53 -0.4,-0.54 -0.37,-0.55 -0.36,-0.56 -0.33,-0.56 -0.31,-0.57 -0.28,-0.57 -0.27,-0.58 -0.25,-0.58 -0.22,-0.58 -0.21,-0.58 -0.19,-0.59 -0.18,-0.58 -0.15,-0.58 -0.14,-0.58 -0.13,-0.57 -0.1,-0.57 -0.1,-0.57 -0.07,-0.56 -0.07,-0.55 -0.05,-0.55 -0.04,-0.53 -0.03,-0.53 -0.01,-0.52 -0.01,-0.5 c 0,-4.92 1.47,-12.55 8.38,-17.42 0.28,0 0.68,0 0.68,0.4 0,0.22 -0.09,0.28 -0.34,0.53 -4.64,4.19 -6.34,10.11 -6.34,16.46 0,9.4 3.59,14 6.45,16.58 0.14,0.14 0.23,0.25 0.23,0.42 0,0.42 -0.4,0.42 -0.68,0.42 z"
             inkscape:connector-curvature="0"
             style="fill:#000000;stroke-width:0" /><path
             id="path1684"
             d="m 520.9,435.31 v 0.71 l -0.02,0.68 -0.03,0.66 -0.04,0.64 -0.06,0.62 -0.08,0.59 -0.09,0.58 -0.11,0.56 -0.12,0.55 -0.15,0.52 -0.17,0.52 -0.19,0.5 -0.21,0.49 -0.24,0.48 -0.26,0.47 -0.14,0.23 -0.15,0.23 c -1.08,1.61 -3.24,3 -6.03,3 -8.08,0 -8.08,-9.52 -8.08,-12.03 0,-2.5 0,-11.81 8.08,-11.81 v 0.98 c -1.6,0 -3.72,0.94 -4.42,3.8 -0.49,2.04 -0.49,4.9 -0.49,7.48 0,2.55 0,5.2 0.52,7.11 0.73,2.75 2.97,3.49 4.39,3.49 1.89,0 3.7,-1.15 4.33,-3.18 0.56,-1.87 0.59,-4.39 0.59,-7.42 0,-2.58 0,-5.15 -0.45,-7.34 -0.71,-3.17 -3.06,-3.94 -4.47,-3.94 v 0 -0.98 c 8.09,0 8.09,9.31 8.09,11.81 z"
             inkscape:connector-curvature="0"
             style="fill:#000000;stroke-width:0" /><path
             id="path1686"
             d="m 525.85,450.34 h -0.02 -0.02 -0.03 -0.03 -0.02 -0.03 -0.03 l -0.03,-0.01 h -0.02 -0.03 l -0.03,-0.01 h -0.03 l -0.02,-0.01 -0.03,-0.01 h -0.03 l -0.02,-0.01 -0.03,-0.01 -0.02,-0.02 -0.03,-0.01 -0.02,-0.01 -0.02,-0.02 -0.02,-0.02 -0.02,-0.02 -0.01,-0.01 -0.01,-0.01 v -0.01 l -0.01,-0.01 -0.01,-0.01 -0.01,-0.02 v -0.01 l -0.01,-0.01 v -0.02 l -0.01,-0.01 v -0.02 l -0.01,-0.01 v -0.02 -0.02 -0.02 -0.01 l -0.01,-0.02 v -0.02 c 0,-0.17 0.11,-0.28 0.32,-0.53 3,-2.75 6.34,-7.46 6.34,-16.44 0,-7.28 -2.27,-12.8 -6.03,-16.2 -0.58,-0.6 -0.63,-0.63 -0.63,-0.82 0,-0.17 0.11,-0.4 0.46,-0.4 0.42,0 3.73,2.29 6.03,6.65 1.53,2.89 2.55,6.66 2.55,10.74 0,4.9 -1.47,12.53 -8.37,17.42 z"
             inkscape:connector-curvature="0"
             style="fill:#000000;stroke-width:0" /></g>      </g>
      <rect
         style="opacity:1;fill:none;fill-opacity:1;stroke:#000000;stroke-width:0.30000001;stroke-miterlimit:4;stroke-dasharray:none;stroke-dashoffset:0"
         id="rect3119"
         width="8.3220139"
         height="5.9382896"
         x="5.1907063"
         y="213.6566" />
    </g>
    <g
       id="g3945"
       transform="translate(1.0583333,-41.27502)">
      <g
         transform="matrix(0.6,0,0,0.6,-13.347541,228.30725)"
         id="g3021">
        <g
           style="font-style:normal;font-variant:normal;font-weight:normal;font-stretch:normal;letter-spacing:normal;word-spacing:normal;text-anchor:start;fill:none;fill-opacity:1;fill-rule:evenodd;stroke:#000000;stroke-linecap:butt;stroke-linejoin:miter;stroke-miterlimit:10.43299961;stroke-dasharray:none;stroke-dashoffset:0;stroke-opacity:1"
           word-spacing="normal"
           letter-spacing="normal"
           font-size-adjust="none"
           font-stretch="normal"
           font-weight="normal"
           font-variant="normal"
           font-style="normal"
           stroke-miterlimit="10.433"
           xml:space="preserve"
           transform="matrix(0.12095238,0,0,-0.12095238,-21.166667,63.5)"
           id="content"><path
             style="fill:#000000;stroke-width:0"
             inkscape:connector-curvature="0"
             id="path3016"
             d="m 490.8,417.81 0.01,0.02 0.01,0.03 0.02,0.05 0.02,0.05 0.02,0.05 0.02,0.05 0.02,0.05 0.02,0.05 0.01,0.05 0.01,0.03 0.01,0.02 0.01,0.02 0.01,0.03 v 0.02 l 0.01,0.02 0.01,0.02 v 0.02 l 0.01,0.02 v 0.02 l 0.01,0.01 v 0.02 0.02 0.01 0.01 l 0.01,0.01 c 0,0.05 0,0.55 -0.6,0.55 -0.45,0 -0.55,-0.3 -0.64,-0.61 -3.25,-7.38 -5.08,-10.7 -13.61,-10.7 h -7.26 c -0.71,0 -0.8,0 -1.1,0.04 -0.5,0.05 -0.65,0.1 -0.65,0.5 0,0.14 0,0.25 0.25,1.14 l 3.39,13.61 h 4.93 c 4.24,0 4.24,-1.04 4.24,-2.29 0,-0.35 0,-0.96 -0.36,-2.44 -0.09,-0.25 -0.14,-0.41 -0.14,-0.55 0,-0.25 0.19,-0.55 0.64,-0.55 0.41,0 0.55,0.25 0.75,0.99 l 2.84,11.67 c 0,0.3 -0.25,0.55 -0.61,0.55 -0.43,0 -0.54,-0.3 -0.68,-0.91 -1.05,-3.78 -1.96,-4.92 -6.54,-4.92 h -4.68 l 3,12 c 0.43,1.75 0.5,1.94 2.68,1.94 h 7.02 c 6.08,0 7.58,-1.44 7.58,-5.53 0,-1.19 0,-1.29 -0.2,-2.64 0,-0.3 -0.05,-0.65 -0.05,-0.9 0,-0.25 0.15,-0.59 0.59,-0.59 0.56,0 0.61,0.3 0.71,1.25 l 1,8.61 c 0.14,1.34 -0.1,1.34 -1.35,1.34 h -25.15 c -1,0 -1.5,0 -1.5,-1 0,-0.54 0.45,-0.54 1.39,-0.54 1.84,0 3.23,0 3.23,-0.89 0,-0.21 0,-0.3 -0.25,-1.21 l -6.56,-26.34 c -0.5,-1.95 -0.61,-2.34 -4.55,-2.34 -0.84,0 -1.39,0 -1.39,-0.96 0,-0.59 0.45,-0.59 1.39,-0.59 h 25.86 c 1.16,0 1.2,0.05 1.55,0.84 z" /><path
             style="fill:#000000;stroke-width:0"
             inkscape:connector-curvature="0"
             id="path3018"
             d="m 507.85,403.61 v 1.01 12.08 c 3.17,-0.24 6.72,-1.63 6.72,-6.02 0,-4.61 -3.8,-5.86 -6.72,-6.06 v -1.01 c 5.72,0.42 10.31,3.42 10.31,7.03 0,3.76 -4.76,6.7 -10.31,7.07 v 1.99 c 0,1.16 0,1.61 3.28,1.61 h 1.22 v 1.25 c -0.77,-0.03 -4.75,-0.14 -6.03,-0.14 -2.07,0 -5.69,0.11 -6.03,0.14 v -1.25 h 1.21 c 3.29,0 3.29,-0.45 3.29,-1.61 v -2.02 c -6.1,-0.48 -10.11,-3.65 -10.11,-7 0,-3.48 4.18,-6.56 10.11,-7.04 v 0.98 c -2.9,0.27 -6.52,1.56 -6.52,6.02 0,4.61 3.77,5.79 6.52,6.06 v -12.08 -0.98 -2.02 c 0,-1.16 0,-1.61 -3.29,-1.61 h -1.21 v -1.25 c 0.76,0.03 4.73,0.14 6.03,0.14 2.06,0 5.67,-0.11 6.03,-0.14 v 1.25 h -1.22 c -3.28,0 -3.28,0.45 -3.28,1.61 z" /></g>      </g>
      <rect
         style="opacity:1;fill:none;fill-opacity:1;stroke:#000000;stroke-width:0.30000001;stroke-miterlimit:4;stroke-dasharray:none;stroke-dashoffset:0"
         id="rect3119-3"
         width="8.3220139"
         height="5.9382896"
         x="5.1907063"
         y="233.02605" />
    </g>
    <g
       transform="translate(2.1166667,-42.333354)"
       id="g3198">
      <g
         id="g3186">
        <g
           transform="matrix(0.6,0,0,0.6,30.120374,229.34019)"
           id="g2412">
          <g
             style="font-style:normal;font-variant:normal;font-weight:normal;font-stretch:normal;letter-spacing:normal;word-spacing:normal;text-anchor:start;fill:none;fill-opacity:1;fill-rule:evenodd;stroke:#000000;stroke-linecap:butt;stroke-linejoin:miter;stroke-miterlimit:10.43299961;stroke-dasharray:none;stroke-dashoffset:0;stroke-opacity:1"
             id="g2410"
             transform="matrix(0.12095238,0,0,-0.12095238,-21.166667,63.5)"
             xml:space="preserve"
             stroke-miterlimit="10.433"
             font-style="normal"
             font-variant="normal"
             font-weight="normal"
             font-stretch="normal"
             font-size-adjust="none"
             letter-spacing="normal"
             word-spacing="normal"><path
               style="fill:#000000;stroke-width:0"
               inkscape:connector-curvature="0"
               d="m 490.8,417.81 0.01,0.02 0.01,0.03 0.02,0.05 0.02,0.05 0.02,0.05 0.02,0.05 0.02,0.05 0.02,0.05 0.01,0.05 0.01,0.03 0.01,0.02 0.01,0.02 0.01,0.03 v 0.02 l 0.01,0.02 0.01,0.02 v 0.02 l 0.01,0.02 v 0.02 l 0.01,0.01 v 0.02 0.02 0.01 0.01 l 0.01,0.01 c 0,0.05 0,0.55 -0.6,0.55 -0.45,0 -0.55,-0.3 -0.64,-0.61 -3.25,-7.38 -5.08,-10.7 -13.61,-10.7 h -7.26 c -0.71,0 -0.8,0 -1.1,0.04 -0.5,0.05 -0.65,0.1 -0.65,0.5 0,0.14 0,0.25 0.25,1.14 l 3.39,13.61 h 4.93 c 4.24,0 4.24,-1.04 4.24,-2.29 0,-0.35 0,-0.96 -0.36,-2.44 -0.09,-0.25 -0.14,-0.41 -0.14,-0.55 0,-0.25 0.19,-0.55 0.64,-0.55 0.41,0 0.55,0.25 0.75,0.99 l 2.84,11.67 c 0,0.3 -0.25,0.55 -0.61,0.55 -0.43,0 -0.54,-0.3 -0.68,-0.91 -1.05,-3.78 -1.96,-4.92 -6.54,-4.92 h -4.68 l 3,12 c 0.43,1.75 0.5,1.94 2.68,1.94 h 7.02 c 6.08,0 7.58,-1.44 7.58,-5.53 0,-1.19 0,-1.29 -0.2,-2.64 0,-0.3 -0.05,-0.65 -0.05,-0.9 0,-0.25 0.15,-0.59 0.59,-0.59 0.56,0 0.61,0.3 0.71,1.25 l 1,8.61 c 0.14,1.34 -0.1,1.34 -1.35,1.34 h -25.15 c -1,0 -1.5,0 -1.5,-1 0,-0.54 0.45,-0.54 1.39,-0.54 1.84,0 3.23,0 3.23,-0.89 0,-0.21 0,-0.3 -0.25,-1.21 l -6.56,-26.34 c -0.5,-1.95 -0.61,-2.34 -4.55,-2.34 -0.84,0 -1.39,0 -1.39,-0.96 0,-0.59 0.45,-0.59 1.39,-0.59 h 25.86 c 1.16,0 1.2,0.05 1.55,0.84 z"
               id="path2406" /><path
               style="fill:#000000;stroke-width:0"
               inkscape:connector-curvature="0"
               d="m 501.75,410.4 h 0.26 l 0.24,-0.02 0.25,-0.03 0.24,-0.04 0.23,-0.05 0.22,-0.06 0.23,-0.07 0.21,-0.08 0.21,-0.1 0.2,-0.1 0.2,-0.12 0.19,-0.12 0.18,-0.14 0.17,-0.15 0.17,-0.16 0.16,-0.17 0.15,-0.18 0.14,-0.19 0.14,-0.2 0.12,-0.22 0.12,-0.22 0.11,-0.24 0.1,-0.24 0.09,-0.26 0.08,-0.27 0.07,-0.28 0.06,-0.29 0.05,-0.3 0.04,-0.31 0.02,-0.32 0.02,-0.33 0.01,-0.35 c 0,-4.33 -2.52,-5.61 -4.54,-5.61 -1.39,0 -4.46,0.38 -5.92,2.44 1.63,0.06 2.02,1.22 2.02,1.95 0,1.11 -0.85,1.91 -1.92,1.91 -0.97,0 -1.96,-0.59 -1.96,-2.02 0,-3.28 3.63,-5.4 7.85,-5.4 4.84,0 8.18,3.25 8.18,6.73 0,2.72 -2.21,5.44 -6.06,6.24 3.66,1.33 4.99,3.93 4.99,6.06 0,2.75 -3.18,4.81 -7.03,4.81 -3.88,0 -6.83,-1.89 -6.83,-4.67 0,-1.19 0.76,-1.84 1.81,-1.84 1.08,0 1.77,0.79 1.77,1.76 0,1.02 -0.69,1.75 -1.77,1.81 1.22,1.55 3.61,1.93 4.91,1.93 1.56,0 3.76,-0.77 3.76,-3.8 0,-1.47 -0.48,-3.06 -1.39,-4.14 -1.16,-1.33 -2.12,-1.41 -3.87,-1.5 -0.88,-0.08 -0.94,-0.08 -1.11,-0.11 -0.08,0 -0.36,-0.06 -0.36,-0.45 0,-0.49 0.31,-0.49 0.9,-0.49 z"
               id="path2408" /></g>        </g>
        <g
           transform="matrix(0.6,0,0,0.6,13.834838,229.36559)"
           id="g2614">
          <g
             style="font-style:normal;font-variant:normal;font-weight:normal;font-stretch:normal;letter-spacing:normal;word-spacing:normal;text-anchor:start;fill:none;fill-opacity:1;fill-rule:evenodd;stroke:#000000;stroke-linecap:butt;stroke-linejoin:miter;stroke-miterlimit:10.43299961;stroke-dasharray:none;stroke-dashoffset:0;stroke-opacity:1"
             word-spacing="normal"
             letter-spacing="normal"
             font-size-adjust="none"
             font-stretch="normal"
             font-weight="normal"
             font-variant="normal"
             font-style="normal"
             stroke-miterlimit="10.433"
             xml:space="preserve"
             transform="matrix(0.12095238,0,0,-0.12095238,-21.166667,63.5)"
             id="g2612"><path
               style="fill:#000000;stroke-width:0"
               inkscape:connector-curvature="0"
               id="path2608"
               d="m 490.8,417.81 0.01,0.02 0.01,0.03 0.02,0.05 0.02,0.05 0.02,0.05 0.02,0.05 0.02,0.05 0.02,0.05 0.01,0.05 0.01,0.03 0.01,0.02 0.01,0.02 0.01,0.03 v 0.02 l 0.01,0.02 0.01,0.02 v 0.02 l 0.01,0.02 v 0.02 l 0.01,0.01 v 0.02 0.02 0.01 0.01 l 0.01,0.01 c 0,0.05 0,0.55 -0.6,0.55 -0.45,0 -0.55,-0.3 -0.64,-0.61 -3.25,-7.38 -5.08,-10.7 -13.61,-10.7 h -7.26 c -0.71,0 -0.8,0 -1.1,0.04 -0.5,0.05 -0.65,0.1 -0.65,0.5 0,0.14 0,0.25 0.25,1.14 l 3.39,13.61 h 4.93 c 4.24,0 4.24,-1.04 4.24,-2.29 0,-0.35 0,-0.96 -0.36,-2.44 -0.09,-0.25 -0.14,-0.41 -0.14,-0.55 0,-0.25 0.19,-0.55 0.64,-0.55 0.41,0 0.55,0.25 0.75,0.99 l 2.84,11.67 c 0,0.3 -0.25,0.55 -0.61,0.55 -0.43,0 -0.54,-0.3 -0.68,-0.91 -1.05,-3.78 -1.96,-4.92 -6.54,-4.92 h -4.68 l 3,12 c 0.43,1.75 0.5,1.94 2.68,1.94 h 7.02 c 6.08,0 7.58,-1.44 7.58,-5.53 0,-1.19 0,-1.29 -0.2,-2.64 0,-0.3 -0.05,-0.65 -0.05,-0.9 0,-0.25 0.15,-0.59 0.59,-0.59 0.56,0 0.61,0.3 0.71,1.25 l 1,8.61 c 0.14,1.34 -0.1,1.34 -1.35,1.34 h -25.15 c -1,0 -1.5,0 -1.5,-1 0,-0.54 0.45,-0.54 1.39,-0.54 1.84,0 3.23,0 3.23,-0.89 0,-0.21 0,-0.3 -0.25,-1.21 l -6.56,-26.34 c -0.5,-1.95 -0.61,-2.34 -4.55,-2.34 -0.84,0 -1.39,0 -1.39,-0.96 0,-0.59 0.45,-0.59 1.39,-0.59 h 25.86 c 1.16,0 1.2,0.05 1.55,0.84 z" /><path
               style="fill:#000000;stroke-width:0"
               inkscape:connector-curvature="0"
               id="path2610"
               d="m 509.83,405.11 h -1.19 c -0.09,-0.77 -0.45,-2.83 -0.9,-3.18 -0.27,-0.2 -2.95,-0.2 -3.44,-0.2 h -6.42 c 3.66,3.23 4.87,4.2 6.97,5.84 2.58,2.07 4.98,4.22 4.98,7.54 0,4.21 -3.69,6.79 -8.15,6.79 -4.32,0 -7.25,-3.03 -7.25,-6.23 0,-1.78 1.5,-1.96 1.86,-1.96 0.82,0 1.84,0.6 1.84,1.85 0,0.62 -0.25,1.84 -2.06,1.84 1.07,2.47 3.45,3.24 5.09,3.24 3.48,0 5.3,-2.71 5.3,-5.53 0,-3.04 -2.16,-5.44 -3.28,-6.69 l -8.39,-8.3 c -0.36,-0.31 -0.36,-0.39 -0.36,-1.36 h 14.36 z" /></g>        </g>
      </g>
      <rect
         style="opacity:1;fill:none;fill-opacity:1;stroke:#000000;stroke-width:0.30000001;stroke-miterlimit:4;stroke-dasharray:none;stroke-dashoffset:0"
         id="rect3119-6"
         width="25.411482"
         height="5.7236218"
         x="31.680107"
         y="234.16623" />
    </g>
    <g
       transform="translate(2.1166667,-42.333354)"
       id="g3555">
      <g
         id="g3256">
        <g
           transform="matrix(0.6,0,0,0.6,46.183459,229.34418)"
           id="g2032">
          <g
             style="font-style:normal;font-variant:normal;font-weight:normal;font-stretch:normal;letter-spacing:normal;word-spacing:normal;text-anchor:start;fill:none;fill-opacity:1;fill-rule:evenodd;stroke:#000000;stroke-linecap:butt;stroke-linejoin:miter;stroke-miterlimit:10.43299961;stroke-dasharray:none;stroke-dashoffset:0;stroke-opacity:1"
             id="g2030"
             transform="matrix(0.12095238,0,0,-0.12095238,-21.166667,63.5)"
             xml:space="preserve"
             stroke-miterlimit="10.433"
             font-style="normal"
             font-variant="normal"
             font-weight="normal"
             font-stretch="normal"
             font-size-adjust="none"
             letter-spacing="normal"
             word-spacing="normal"><path
               style="fill:#000000;stroke-width:0"
               inkscape:connector-curvature="0"
               d="m 481.28,438.73 -0.8,0.75 c 0,-0.05 -1.89,-2.39 -4.08,-2.39 -1.14,0 -2.39,0.75 -3.23,1.25 -1.35,0.8 -2.25,1.14 -3.1,1.14 -1.89,0 -2.84,-1.09 -5.37,-3.89 l 0.8,-0.75 c 0,0.06 1.89,2.39 4.07,2.39 1.14,0 2.39,-0.73 3.24,-1.23 1.34,-0.8 2.25,-1.16 3.09,-1.16 1.89,0 2.85,1.11 5.38,3.89 z"
               id="path2024" /><path
               style="fill:#000000;stroke-width:0"
               inkscape:connector-curvature="0"
               d="m 479.28,417.96 v 0.37 l -0.01,0.35 -0.02,0.35 -0.02,0.34 -0.07,0.65 -0.09,0.63 -0.11,0.59 -0.13,0.57 -0.16,0.54 -0.17,0.51 -0.2,0.49 -0.21,0.45 -0.23,0.44 -0.24,0.4 -0.26,0.38 -0.28,0.36 -0.28,0.33 -0.3,0.31 -0.31,0.29 -0.32,0.26 -0.33,0.24 -0.33,0.22 -0.34,0.2 -0.35,0.18 -0.35,0.16 -0.36,0.14 -0.36,0.12 -0.36,0.11 -0.36,0.09 -0.36,0.06 -0.36,0.06 -0.36,0.04 -0.35,0.02 h -0.35 l -0.04,-1.09 c 4.93,0 4.93,-6.53 4.93,-10.41 0,-1.84 0,-4.73 0.1,-5.57 v 0 c -4.38,-3.85 -8.22,-4.39 -10.21,-4.39 -3,0 -4.48,2.25 -4.48,5.43 0,2.44 1.3,7.82 2.89,10.36 2.33,3.64 5.03,4.58 6.77,4.58 l 0.04,1.09 c -6.81,0 -13.39,-7.12 -13.39,-14.14 0,-4.64 2.99,-8.42 8.06,-8.42 3.15,0 6.74,1.14 10.52,4.19 0.66,-2.64 2.3,-4.19 4.53,-4.19 2.64,0 4.19,2.74 4.19,3.53 0,0.36 -0.3,0.5 -0.59,0.5 -0.36,0 -0.5,-0.14 -0.66,-0.5 -0.89,-2.43 -2.69,-2.43 -2.78,-2.43 -1.55,0 -1.55,3.89 -1.55,5.07 0,1.05 0,1.16 0.5,1.75 4.69,5.88 5.74,11.66 5.74,11.71 0,0.11 -0.07,0.5 -0.61,0.5 -0.5,0 -0.5,-0.14 -0.75,-1.05 -0.89,-3.14 -2.54,-6.92 -4.88,-9.86 z"
               id="path2026" /><path
               style="fill:#000000;stroke-width:0"
               inkscape:connector-curvature="0"
               d="m 505.04,405.11 h -1.19 c -0.1,-0.77 -0.46,-2.83 -0.91,-3.18 -0.26,-0.2 -2.95,-0.2 -3.44,-0.2 h -6.42 c 3.66,3.23 4.88,4.2 6.97,5.84 2.58,2.07 4.99,4.22 4.99,7.54 0,4.21 -3.69,6.79 -8.16,6.79 -4.31,0 -7.25,-3.03 -7.25,-6.23 0,-1.78 1.5,-1.96 1.86,-1.96 0.83,0 1.84,0.6 1.84,1.85 0,0.62 -0.25,1.84 -2.06,1.84 1.08,2.47 3.45,3.24 5.09,3.24 3.49,0 5.3,-2.71 5.3,-5.53 0,-3.04 -2.16,-5.44 -3.28,-6.69 l -8.39,-8.3 c -0.36,-0.31 -0.36,-0.39 -0.36,-1.36 h 14.36 z"
               id="path2028" /></g>        </g>
        <g
           transform="matrix(0.6,0,0,0.6,54.619222,229.31878)"
           id="g2218">
          <g
             style="font-style:normal;font-variant:normal;font-weight:normal;font-stretch:normal;letter-spacing:normal;word-spacing:normal;text-anchor:start;fill:none;fill-opacity:1;fill-rule:evenodd;stroke:#000000;stroke-linecap:butt;stroke-linejoin:miter;stroke-miterlimit:10.43299961;stroke-dasharray:none;stroke-dashoffset:0;stroke-opacity:1"
             word-spacing="normal"
             letter-spacing="normal"
             font-size-adjust="none"
             font-stretch="normal"
             font-weight="normal"
             font-variant="normal"
             font-style="normal"
             stroke-miterlimit="10.433"
             xml:space="preserve"
             transform="matrix(0.12095238,0,0,-0.12095238,-21.166667,63.5)"
             id="g2216"><path
               style="fill:#000000;stroke-width:0"
               inkscape:connector-curvature="0"
               id="path2210"
               d="m 481.28,438.73 -0.8,0.75 c 0,-0.05 -1.89,-2.39 -4.08,-2.39 -1.14,0 -2.39,0.75 -3.23,1.25 -1.35,0.8 -2.25,1.14 -3.1,1.14 -1.89,0 -2.84,-1.09 -5.37,-3.89 l 0.8,-0.75 c 0,0.06 1.89,2.39 4.07,2.39 1.14,0 2.39,-0.73 3.24,-1.23 1.34,-0.8 2.25,-1.16 3.09,-1.16 1.89,0 2.85,1.11 5.38,3.89 z" /><path
               style="fill:#000000;stroke-width:0"
               inkscape:connector-curvature="0"
               id="path2212"
               d="m 479.28,417.96 v 0.37 l -0.01,0.35 -0.02,0.35 -0.02,0.34 -0.07,0.65 -0.09,0.63 -0.11,0.59 -0.13,0.57 -0.16,0.54 -0.17,0.51 -0.2,0.49 -0.21,0.45 -0.23,0.44 -0.24,0.4 -0.26,0.38 -0.28,0.36 -0.28,0.33 -0.3,0.31 -0.31,0.29 -0.32,0.26 -0.33,0.24 -0.33,0.22 -0.34,0.2 -0.35,0.18 -0.35,0.16 -0.36,0.14 -0.36,0.12 -0.36,0.11 -0.36,0.09 -0.36,0.06 -0.36,0.06 -0.36,0.04 -0.35,0.02 h -0.35 l -0.04,-1.09 c 4.93,0 4.93,-6.53 4.93,-10.41 0,-1.84 0,-4.73 0.1,-5.57 v 0 c -4.38,-3.85 -8.22,-4.39 -10.21,-4.39 -3,0 -4.48,2.25 -4.48,5.43 0,2.44 1.3,7.82 2.89,10.36 2.33,3.64 5.03,4.58 6.77,4.58 l 0.04,1.09 c -6.81,0 -13.39,-7.12 -13.39,-14.14 0,-4.64 2.99,-8.42 8.06,-8.42 3.15,0 6.74,1.14 10.52,4.19 0.66,-2.64 2.3,-4.19 4.53,-4.19 2.64,0 4.19,2.74 4.19,3.53 0,0.36 -0.3,0.5 -0.59,0.5 -0.36,0 -0.5,-0.14 -0.66,-0.5 -0.89,-2.43 -2.69,-2.43 -2.78,-2.43 -1.55,0 -1.55,3.89 -1.55,5.07 0,1.05 0,1.16 0.5,1.75 4.69,5.88 5.74,11.66 5.74,11.71 0,0.11 -0.07,0.5 -0.61,0.5 -0.5,0 -0.5,-0.14 -0.75,-1.05 -0.89,-3.14 -2.54,-6.92 -4.88,-9.86 z" /><path
               style="fill:#000000;stroke-width:0"
               inkscape:connector-curvature="0"
               id="path2214"
               d="m 496.96,410.4 h 0.25 l 0.25,-0.02 0.24,-0.03 0.24,-0.04 0.23,-0.05 0.23,-0.06 0.22,-0.07 0.21,-0.08 0.21,-0.1 0.21,-0.1 0.19,-0.12 0.19,-0.12 0.18,-0.14 0.18,-0.15 0.16,-0.16 0.16,-0.17 0.15,-0.18 0.15,-0.19 0.13,-0.2 0.13,-0.22 0.11,-0.22 0.11,-0.24 0.1,-0.24 0.09,-0.26 0.08,-0.27 0.07,-0.28 0.06,-0.29 0.05,-0.3 0.04,-0.31 0.03,-0.32 0.01,-0.33 0.01,-0.35 c 0,-4.33 -2.52,-5.61 -4.53,-5.61 -1.39,0 -4.47,0.38 -5.92,2.44 1.62,0.06 2.01,1.22 2.01,1.95 0,1.11 -0.84,1.91 -1.92,1.91 -0.97,0 -1.95,-0.59 -1.95,-2.02 0,-3.28 3.62,-5.4 7.84,-5.4 4.84,0 8.19,3.25 8.19,6.73 0,2.72 -2.22,5.44 -6.06,6.24 3.65,1.33 4.98,3.93 4.98,6.06 0,2.75 -3.17,4.81 -7.03,4.81 -3.88,0 -6.83,-1.89 -6.83,-4.67 0,-1.19 0.77,-1.84 1.81,-1.84 1.08,0 1.77,0.79 1.77,1.76 0,1.02 -0.69,1.75 -1.77,1.81 1.22,1.55 3.61,1.93 4.91,1.93 1.56,0 3.76,-0.77 3.76,-3.8 0,-1.47 -0.48,-3.06 -1.39,-4.14 -1.15,-1.33 -2.12,-1.41 -3.87,-1.5 -0.88,-0.08 -0.94,-0.08 -1.11,-0.11 -0.08,0 -0.36,-0.06 -0.36,-0.45 0,-0.49 0.31,-0.49 0.91,-0.49 z" /></g>        </g>
      </g>
      <rect
         style="opacity:1;fill:none;fill-opacity:1;stroke:#000000;stroke-width:0.30000001;stroke-miterlimit:4;stroke-dasharray:none;stroke-dashoffset:0"
         id="rect3119-6-3"
         width="15.127082"
         height="5.7908039"
         x="65.077675"
         y="234.13264" />
    </g>
    <g
       id="g3577"
       transform="translate(5.9806603,-43.104225)">
      <g
         id="g3565">
        <g
           transform="matrix(0.6,0,0,0.6,36.627181,239.67954)"
           id="g985">
          <g
             style="font-style:normal;font-variant:normal;font-weight:normal;font-stretch:normal;letter-spacing:normal;word-spacing:normal;text-anchor:start;fill:none;fill-opacity:1;fill-rule:evenodd;stroke:#000000;stroke-linecap:butt;stroke-linejoin:miter;stroke-miterlimit:10.43299961;stroke-dasharray:none;stroke-dashoffset:0;stroke-opacity:1"
             id="g983"
             transform="matrix(0.12095238,0,0,-0.12095238,-21.166667,63.5)"
             xml:space="preserve"
             stroke-miterlimit="10.433"
             font-style="normal"
             font-variant="normal"
             font-weight="normal"
             font-stretch="normal"
             font-size-adjust="none"
             letter-spacing="normal"
             word-spacing="normal"><path
               style="fill:#000000;stroke-width:0"
               inkscape:connector-curvature="0"
               d="m 479.29,417.96 -0.01,0.37 -0.01,0.35 -0.02,0.35 -0.02,0.34 -0.06,0.65 -0.09,0.63 -0.11,0.59 -0.14,0.57 -0.15,0.54 -0.18,0.51 -0.19,0.49 -0.21,0.45 -0.23,0.44 -0.25,0.4 -0.26,0.38 -0.27,0.36 -0.29,0.33 -0.3,0.31 -0.31,0.29 -0.31,0.26 -0.33,0.24 -0.34,0.22 -0.34,0.2 -0.35,0.18 -0.35,0.16 -0.36,0.14 -0.35,0.12 -0.36,0.11 -0.37,0.09 -0.36,0.06 -0.36,0.06 -0.35,0.04 -0.35,0.02 h -0.35 l -0.05,-1.09 c 4.94,0 4.94,-6.53 4.94,-10.41 0,-1.84 0,-4.73 0.09,-5.57 v 0 c -4.37,-3.85 -8.22,-4.39 -10.2,-4.39 -3,0 -4.49,2.25 -4.49,5.43 0,2.44 1.3,7.82 2.89,10.36 2.33,3.64 5.04,4.58 6.77,4.58 l 0.05,1.09 c -6.82,0 -13.39,-7.12 -13.39,-14.14 0,-4.64 2.98,-8.42 8.06,-8.42 3.14,0 6.73,1.14 10.51,4.19 0.66,-2.64 2.3,-4.19 4.54,-4.19 2.64,0 4.18,2.74 4.18,3.53 0,0.36 -0.29,0.5 -0.59,0.5 -0.36,0 -0.5,-0.14 -0.66,-0.5 -0.89,-2.43 -2.68,-2.43 -2.78,-2.43 -1.54,0 -1.54,3.89 -1.54,5.07 0,1.05 0,1.16 0.5,1.75 4.68,5.88 5.73,11.66 5.73,11.71 0,0.11 -0.06,0.5 -0.61,0.5 -0.5,0 -0.5,-0.14 -0.75,-1.05 -0.89,-3.14 -2.53,-6.92 -4.87,-9.86 z"
               id="path979" /><path
               style="fill:#000000;stroke-width:0"
               inkscape:connector-curvature="0"
               d="m 496.96,410.4 h 0.25 l 0.25,-0.02 0.24,-0.03 0.24,-0.04 0.23,-0.05 0.23,-0.06 0.22,-0.07 0.21,-0.08 0.21,-0.1 0.21,-0.1 0.19,-0.12 0.19,-0.12 0.18,-0.14 0.18,-0.15 0.16,-0.16 0.16,-0.17 0.15,-0.18 0.15,-0.19 0.13,-0.2 0.13,-0.22 0.11,-0.22 0.11,-0.24 0.1,-0.24 0.09,-0.26 0.08,-0.27 0.07,-0.28 0.06,-0.29 0.05,-0.3 0.04,-0.31 0.03,-0.32 0.01,-0.33 0.01,-0.35 c 0,-4.33 -2.52,-5.61 -4.53,-5.61 -1.39,0 -4.47,0.38 -5.92,2.44 1.62,0.06 2.01,1.22 2.01,1.95 0,1.11 -0.84,1.91 -1.92,1.91 -0.97,0 -1.95,-0.59 -1.95,-2.02 0,-3.28 3.62,-5.4 7.84,-5.4 4.84,0 8.19,3.25 8.19,6.73 0,2.72 -2.22,5.44 -6.06,6.24 3.65,1.33 4.98,3.93 4.98,6.06 0,2.75 -3.17,4.81 -7.03,4.81 -3.88,0 -6.83,-1.89 -6.83,-4.67 0,-1.19 0.77,-1.84 1.81,-1.84 1.08,0 1.77,0.79 1.77,1.76 0,1.02 -0.69,1.75 -1.77,1.81 1.22,1.55 3.61,1.93 4.91,1.93 1.56,0 3.76,-0.77 3.76,-3.8 0,-1.47 -0.48,-3.06 -1.39,-4.14 -1.15,-1.33 -2.12,-1.41 -3.87,-1.5 -0.88,-0.08 -0.94,-0.08 -1.11,-0.11 -0.08,0 -0.36,-0.06 -0.36,-0.45 0,-0.49 0.31,-0.49 0.91,-0.49 z"
               id="path981" /></g>        </g>
        <g
           transform="matrix(0.6,0,0,0.6,28.191418,239.70494)"
           id="g1856">
          <g
             style="font-style:normal;font-variant:normal;font-weight:normal;font-stretch:normal;letter-spacing:normal;word-spacing:normal;text-anchor:start;fill:none;fill-opacity:1;fill-rule:evenodd;stroke:#000000;stroke-linecap:butt;stroke-linejoin:miter;stroke-miterlimit:10.43299961;stroke-dasharray:none;stroke-dashoffset:0;stroke-opacity:1"
             word-spacing="normal"
             letter-spacing="normal"
             font-size-adjust="none"
             font-stretch="normal"
             font-weight="normal"
             font-variant="normal"
             font-style="normal"
             stroke-miterlimit="10.433"
             xml:space="preserve"
             transform="matrix(0.12095238,0,0,-0.12095238,-21.166667,63.5)"
             id="g1854"><path
               style="fill:#000000;stroke-width:0"
               inkscape:connector-curvature="0"
               id="path1850"
               d="m 479.29,417.96 -0.01,0.37 -0.01,0.35 -0.02,0.35 -0.02,0.34 -0.06,0.65 -0.09,0.63 -0.11,0.59 -0.14,0.57 -0.15,0.54 -0.18,0.51 -0.19,0.49 -0.21,0.45 -0.23,0.44 -0.25,0.4 -0.26,0.38 -0.27,0.36 -0.29,0.33 -0.3,0.31 -0.31,0.29 -0.31,0.26 -0.33,0.24 -0.34,0.22 -0.34,0.2 -0.35,0.18 -0.35,0.16 -0.36,0.14 -0.35,0.12 -0.36,0.11 -0.37,0.09 -0.36,0.06 -0.36,0.06 -0.35,0.04 -0.35,0.02 h -0.35 l -0.05,-1.09 c 4.94,0 4.94,-6.53 4.94,-10.41 0,-1.84 0,-4.73 0.09,-5.57 v 0 c -4.37,-3.85 -8.22,-4.39 -10.2,-4.39 -3,0 -4.49,2.25 -4.49,5.43 0,2.44 1.3,7.82 2.89,10.36 2.33,3.64 5.04,4.58 6.77,4.58 l 0.05,1.09 c -6.82,0 -13.39,-7.12 -13.39,-14.14 0,-4.64 2.98,-8.42 8.06,-8.42 3.14,0 6.73,1.14 10.51,4.19 0.66,-2.64 2.3,-4.19 4.54,-4.19 2.64,0 4.18,2.74 4.18,3.53 0,0.36 -0.29,0.5 -0.59,0.5 -0.36,0 -0.5,-0.14 -0.66,-0.5 -0.89,-2.43 -2.68,-2.43 -2.78,-2.43 -1.54,0 -1.54,3.89 -1.54,5.07 0,1.05 0,1.16 0.5,1.75 4.68,5.88 5.73,11.66 5.73,11.71 0,0.11 -0.06,0.5 -0.61,0.5 -0.5,0 -0.5,-0.14 -0.75,-1.05 -0.89,-3.14 -2.53,-6.92 -4.87,-9.86 z" /><path
               style="fill:#000000;stroke-width:0"
               inkscape:connector-curvature="0"
               id="path1852"
               d="m 505.04,405.11 h -1.19 c -0.1,-0.77 -0.46,-2.83 -0.91,-3.18 -0.26,-0.2 -2.95,-0.2 -3.44,-0.2 h -6.42 c 3.66,3.23 4.88,4.2 6.97,5.84 2.58,2.07 4.99,4.22 4.99,7.54 0,4.21 -3.69,6.79 -8.16,6.79 -4.31,0 -7.25,-3.03 -7.25,-6.23 0,-1.78 1.5,-1.96 1.86,-1.96 0.83,0 1.84,0.6 1.84,1.85 0,0.62 -0.25,1.84 -2.06,1.84 1.08,2.47 3.45,3.24 5.09,3.24 3.49,0 5.3,-2.71 5.3,-5.53 0,-3.04 -2.16,-5.44 -3.28,-6.69 l -8.39,-8.3 c -0.36,-0.31 -0.36,-0.39 -0.36,-1.36 h 14.36 z" /></g>        </g>
      </g>
      <rect
         style="opacity:1;fill:none;fill-opacity:1;stroke:#000000;stroke-width:0.30000001;stroke-miterlimit:4;stroke-dasharray:none;stroke-dashoffset:0"
         id="rect3119-6-3-5"
         width="15.127082"
         height="5.7908039"
         x="47.085999"
         y="244.90234" />
    </g>
    <g
       transform="translate(2.1166667,-42.190753)"
       id="g3638">
      <g
         id="g3220">
        <g
           id="g2927"
           transform="translate(2.6458335,-4.2333335)">
          <text
             xml:space="preserve"
             style="font-style:normal;font-weight:normal;font-size:10.58333302px;line-height:1.25;font-family:sans-serif;letter-spacing:0px;word-spacing:0px;fill:#000000;fill-opacity:1;stroke:none;stroke-width:0.26458332"
             x="43.296185"
             y="230.11383"
             id="text1186-8"><tspan
               sodipodi:role="line"
               id="tspan1184-79"
               x="43.296185"
               y="230.11383"
               style="font-size:2.46944451px;stroke-width:0.26458332">Hessian of</tspan></text>
          <g
             id="g1173"
             transform="matrix(0.6,0,0,0.6,24.828943,225.15645)">
            <g
               id="g1171"
               transform="matrix(0.12095238,0,0,-0.12095238,-21.166667,63.5)"
               xml:space="preserve"
               stroke-miterlimit="10.433"
               font-style="normal"
               font-variant="normal"
               font-weight="normal"
               font-stretch="normal"
               font-size-adjust="none"
               letter-spacing="normal"
               word-spacing="normal"
               style="font-style:normal;font-variant:normal;font-weight:normal;font-stretch:normal;letter-spacing:normal;word-spacing:normal;text-anchor:start;fill:none;fill-opacity:1;fill-rule:evenodd;stroke:#000000;stroke-linecap:butt;stroke-linejoin:miter;stroke-miterlimit:10.43299961;stroke-dasharray:none;stroke-dashoffset:0;stroke-opacity:1"><path
                 d="m 476.8,436.29 v 0.16 0.15 0.14 l 0.01,0.14 0.01,0.13 0.01,0.13 0.02,0.12 0.02,0.12 0.04,0.11 0.04,0.11 0.04,0.1 0.06,0.09 0.07,0.09 0.08,0.09 0.09,0.08 0.1,0.07 0.12,0.07 0.06,0.03 0.07,0.04 0.07,0.03 0.08,0.03 0.08,0.03 0.08,0.02 0.09,0.03 0.09,0.02 0.1,0.03 0.1,0.02 0.11,0.02 0.11,0.02 0.12,0.02 0.12,0.02 0.13,0.01 0.13,0.02 0.14,0.01 0.14,0.02 0.15,0.01 0.16,0.01 0.16,0.01 0.16,0.01 0.17,0.01 0.18,0.01 h 0.19 l 0.19,0.01 h 0.2 0.2 0.21 0.22 1.66 v 1.55 c -1.8,-0.16 -6.38,-0.16 -8.43,-0.16 -2.04,0 -6.67,0 -8.46,0.16 v -1.55 h 1.64 c 4.73,0 4.73,-0.65 4.73,-2.39 v -22.12 c -6.53,1.75 -6.78,9.42 -6.78,12.65 -0.05,6.04 -2.24,6.97 -4.44,6.97 h -1.84 c -0.74,0 -1.24,0 -1.24,-0.54 0,-0.25 0.14,-0.49 0.44,-0.55 1.66,-0.19 2.89,-0.89 2.95,-6.77 0,-1.15 0.14,-5.09 2.54,-8.42 1.95,-2.69 4.98,-4.14 8.37,-4.59 v -2.78 c 0,-1.71 0,-2.39 -4.73,-2.39 h -1.64 v -1.55 c 1.79,0.16 6.37,0.16 8.42,0.16 2.03,0 6.67,0 8.47,-0.16 v 1.55 h -1.66 c -4.72,0 -4.72,0.64 -4.72,2.39 v 2.78 c 3.58,0.45 6.63,1.95 8.56,4.54 2.6,3.54 2.64,7.47 2.64,9.66 0,0.8 0.05,5.24 2.74,5.58 0.3,0.06 0.65,0.11 0.65,0.55 0,0.54 -0.4,0.54 -1.2,0.54 h -1.89 c -1.94,0 -4.39,-0.34 -4.44,-7.56 -0.04,-5.48 -1.68,-10.77 -7.06,-12.06 z"
                 id="path1161"
                 inkscape:connector-curvature="0"
                 style="fill:#000000;stroke-width:0" /><path
                 d="m 503.8,410.4 h 0.25 l 0.25,-0.02 0.24,-0.03 0.24,-0.04 0.23,-0.05 0.23,-0.06 0.22,-0.07 0.21,-0.08 0.21,-0.1 0.21,-0.1 0.19,-0.12 0.19,-0.12 0.18,-0.14 0.18,-0.15 0.16,-0.16 0.16,-0.17 0.15,-0.18 0.15,-0.19 0.13,-0.2 0.13,-0.22 0.11,-0.22 0.11,-0.24 0.1,-0.24 0.09,-0.26 0.08,-0.27 0.07,-0.28 0.06,-0.29 0.05,-0.3 0.04,-0.31 0.03,-0.32 0.01,-0.33 0.01,-0.35 c 0,-4.33 -2.52,-5.61 -4.53,-5.61 -1.39,0 -4.47,0.38 -5.92,2.44 1.62,0.06 2.01,1.22 2.01,1.95 0,1.11 -0.84,1.91 -1.92,1.91 -0.97,0 -1.95,-0.59 -1.95,-2.02 0,-3.28 3.62,-5.4 7.84,-5.4 4.84,0 8.19,3.25 8.19,6.73 0,2.72 -2.22,5.44 -6.07,6.24 3.66,1.33 4.99,3.93 4.99,6.06 0,2.75 -3.17,4.81 -7.03,4.81 -3.88,0 -6.83,-1.89 -6.83,-4.67 0,-1.19 0.77,-1.84 1.81,-1.84 1.08,0 1.77,0.79 1.77,1.76 0,1.02 -0.69,1.75 -1.77,1.81 1.22,1.55 3.61,1.93 4.91,1.93 1.56,0 3.76,-0.77 3.76,-3.8 0,-1.47 -0.48,-3.06 -1.39,-4.14 -1.15,-1.33 -2.12,-1.41 -3.87,-1.5 -0.88,-0.08 -0.94,-0.08 -1.11,-0.11 -0.08,0 -0.36,-0.06 -0.36,-0.45 0,-0.49 0.31,-0.49 0.91,-0.49 z"
                 id="path1163"
                 inkscape:connector-curvature="0"
                 style="fill:#000000;stroke-width:0" /><path
                 d="m 533.09,394.25 v 0.02 l -0.01,0.03 v 0.01 0.02 0.01 l -0.01,0.02 v 0.01 l -0.01,0.02 -0.01,0.02 -0.01,0.02 -0.01,0.02 -0.01,0.03 -0.02,0.02 -0.02,0.03 -0.02,0.03 -0.02,0.03 -0.03,0.03 -0.03,0.04 -0.02,0.02 -0.01,0.02 -0.02,0.02 -0.02,0.02 -0.02,0.02 -0.02,0.03 -0.02,0.02 -0.02,0.02 -0.02,0.03 -0.03,0.02 -0.02,0.03 -0.03,0.03 -0.02,0.03 -0.03,0.03 -0.03,0.03 -0.03,0.03 -0.03,0.03 -0.03,0.03 -0.04,0.04 -0.03,0.03 -0.03,0.04 -0.04,0.03 -0.04,0.04 -0.04,0.04 c -6.22,6.28 -7.81,15.69 -7.81,23.31 0,8.67 1.89,17.35 8.02,23.56 0.64,0.61 0.64,0.71 0.64,0.86 0,0.35 -0.19,0.49 -0.49,0.49 -0.5,0 -4.98,-3.38 -7.92,-9.7 -2.55,-5.49 -3.14,-11.02 -3.14,-15.21 0,-3.89 0.55,-9.9 3.28,-15.54 2.98,-6.13 7.28,-9.36 7.78,-9.36 0.3,0 0.49,0.14 0.49,0.5 z"
                 id="path1165"
                 inkscape:connector-curvature="0"
                 style="fill:#000000;stroke-width:0" /><path
                 d="m 546.87,408.14 0.2,-0.16 0.21,-0.15 0.2,-0.15 0.2,-0.14 0.2,-0.13 0.21,-0.12 0.2,-0.12 0.2,-0.11 0.2,-0.11 0.21,-0.1 0.2,-0.09 0.2,-0.09 0.2,-0.09 0.2,-0.07 0.21,-0.07 0.2,-0.07 0.2,-0.06 0.2,-0.06 0.4,-0.1 0.4,-0.08 0.39,-0.06 0.4,-0.05 0.39,-0.03 0.39,-0.02 0.38,-0.01 -0.54,1.8 c -0.71,0 -3.05,0 -5.29,2.69 -0.56,0.64 -0.56,0.68 -0.56,1.64 v 10.56 c 0,0.95 0.06,1 0.75,1.69 2,2.04 4.6,2.34 5.69,2.34 3.33,0 6.12,-3.03 6.12,-9.31 0,-7.03 -3.48,-9.61 -6.71,-9.61 l 0.54,-1.8 c 7.47,0 12.55,4.49 12.55,11.41 0,6.62 -4.53,11.31 -11.71,11.31 -3.73,0 -6.37,-1.55 -7.53,-2.44 v 2.44 l -8.81,-0.41 v -2.34 c 3.09,0 3.44,0 3.44,-1.89 v -25.11 h -3.44 v -2.34 c 1.39,0.06 4.39,0.15 6.28,0.15 1.94,0 4.88,-0.09 6.27,-0.15 v 2.34 h -3.44 z"
                 id="path1167"
                 inkscape:connector-curvature="0"
                 style="fill:#000000;stroke-width:0" /><path
                 d="m 582.1,418.65 v 0.37 0.39 l -0.01,0.39 -0.01,0.41 -0.04,0.84 -0.06,0.88 -0.09,0.92 -0.1,0.95 -0.14,0.97 -0.16,1.01 -0.2,1.02 -0.23,1.03 -0.26,1.05 -0.31,1.06 -0.35,1.07 -0.39,1.07 -0.21,0.53 -0.23,0.53 -0.24,0.53 -0.25,0.53 c -2.98,6.12 -7.26,9.36 -7.76,9.36 -0.3,0 -0.5,-0.19 -0.5,-0.49 0,-0.15 0,-0.25 0.94,-1.15 4.89,-4.92 7.73,-12.85 7.73,-23.27 0,-8.51 -1.84,-17.28 -8.03,-23.56 -0.64,-0.59 -0.64,-0.7 -0.64,-0.84 0,-0.3 0.2,-0.5 0.5,-0.5 0.5,0 4.97,3.39 7.92,9.71 2.53,5.47 3.12,11 3.12,15.19 z"
                 id="path1169"
                 inkscape:connector-curvature="0"
                 style="fill:#000000;stroke-width:0" /></g>          </g>
        </g>
        <g
           id="g2938"
           transform="translate(6.5462214,-4.2333335)">
          <text
             xml:space="preserve"
             style="font-style:normal;font-weight:normal;font-size:10.58333302px;line-height:1.25;font-family:sans-serif;letter-spacing:0px;word-spacing:0px;fill:#000000;fill-opacity:1;stroke:none;stroke-width:0.26458332"
             x="23.099016"
             y="230.11383"
             id="text1186-2"><tspan
               sodipodi:role="line"
               id="tspan1184-7"
               x="23.099016"
               y="230.11383"
               style="font-size:2.46944451px;stroke-width:0.26458332">Hessian of</tspan></text>
          <g
             id="g1386"
             transform="matrix(0.6,0,0,0.6,4.6317745,225.15645)">
            <g
               word-spacing="normal"
               letter-spacing="normal"
               font-size-adjust="none"
               font-stretch="normal"
               font-weight="normal"
               font-variant="normal"
               font-style="normal"
               stroke-miterlimit="10.433"
               xml:space="preserve"
               transform="matrix(0.12095238,0,0,-0.12095238,-21.166667,63.5)"
               id="g1384"
               style="font-style:normal;font-variant:normal;font-weight:normal;font-stretch:normal;letter-spacing:normal;word-spacing:normal;text-anchor:start;fill:none;fill-opacity:1;fill-rule:evenodd;stroke:#000000;stroke-linecap:butt;stroke-linejoin:miter;stroke-miterlimit:10.43299961;stroke-dasharray:none;stroke-dashoffset:0;stroke-opacity:1"><path
                 id="path1374"
                 d="m 476.8,436.29 v 0.16 0.15 0.14 l 0.01,0.14 0.01,0.13 0.01,0.13 0.02,0.12 0.02,0.12 0.04,0.11 0.04,0.11 0.04,0.1 0.06,0.09 0.07,0.09 0.08,0.09 0.09,0.08 0.1,0.07 0.12,0.07 0.06,0.03 0.07,0.04 0.07,0.03 0.08,0.03 0.08,0.03 0.08,0.02 0.09,0.03 0.09,0.02 0.1,0.03 0.1,0.02 0.11,0.02 0.11,0.02 0.12,0.02 0.12,0.02 0.13,0.01 0.13,0.02 0.14,0.01 0.14,0.02 0.15,0.01 0.16,0.01 0.16,0.01 0.16,0.01 0.17,0.01 0.18,0.01 h 0.19 l 0.19,0.01 h 0.2 0.2 0.21 0.22 1.66 v 1.55 c -1.8,-0.16 -6.38,-0.16 -8.43,-0.16 -2.04,0 -6.67,0 -8.46,0.16 v -1.55 h 1.64 c 4.73,0 4.73,-0.65 4.73,-2.39 v -22.12 c -6.53,1.75 -6.78,9.42 -6.78,12.65 -0.05,6.04 -2.24,6.97 -4.44,6.97 h -1.84 c -0.74,0 -1.24,0 -1.24,-0.54 0,-0.25 0.14,-0.49 0.44,-0.55 1.66,-0.19 2.89,-0.89 2.95,-6.77 0,-1.15 0.14,-5.09 2.54,-8.42 1.95,-2.69 4.98,-4.14 8.37,-4.59 v -2.78 c 0,-1.71 0,-2.39 -4.73,-2.39 h -1.64 v -1.55 c 1.79,0.16 6.37,0.16 8.42,0.16 2.03,0 6.67,0 8.47,-0.16 v 1.55 h -1.66 c -4.72,0 -4.72,0.64 -4.72,2.39 v 2.78 c 3.58,0.45 6.63,1.95 8.56,4.54 2.6,3.54 2.64,7.47 2.64,9.66 0,0.8 0.05,5.24 2.74,5.58 0.3,0.06 0.65,0.11 0.65,0.55 0,0.54 -0.4,0.54 -1.2,0.54 h -1.89 c -1.94,0 -4.39,-0.34 -4.44,-7.56 -0.04,-5.48 -1.68,-10.77 -7.06,-12.06 z"
                 inkscape:connector-curvature="0"
                 style="fill:#000000;stroke-width:0" /><path
                 id="path1376"
                 d="m 511.88,405.11 h -1.19 c -0.1,-0.77 -0.46,-2.83 -0.91,-3.18 -0.26,-0.2 -2.95,-0.2 -3.44,-0.2 h -6.42 c 3.66,3.23 4.88,4.2 6.97,5.84 2.58,2.07 4.99,4.22 4.99,7.54 0,4.21 -3.69,6.79 -8.16,6.79 -4.31,0 -7.25,-3.03 -7.25,-6.23 0,-1.78 1.5,-1.96 1.86,-1.96 0.83,0 1.84,0.6 1.84,1.85 0,0.62 -0.25,1.84 -2.06,1.84 1.08,2.47 3.45,3.24 5.09,3.24 3.49,0 5.3,-2.71 5.3,-5.53 0,-3.04 -2.16,-5.44 -3.28,-6.69 l -8.39,-8.3 c -0.36,-0.31 -0.36,-0.39 -0.36,-1.36 h 14.36 z"
                 inkscape:connector-curvature="0"
                 style="fill:#000000;stroke-width:0" /><path
                 id="path1378"
                 d="m 533.09,394.25 v 0.02 l -0.01,0.03 v 0.01 0.02 0.01 l -0.01,0.02 v 0.01 l -0.01,0.02 -0.01,0.02 -0.01,0.02 -0.01,0.02 -0.01,0.03 -0.02,0.02 -0.02,0.03 -0.02,0.03 -0.02,0.03 -0.03,0.03 -0.03,0.04 -0.02,0.02 -0.01,0.02 -0.02,0.02 -0.02,0.02 -0.02,0.02 -0.02,0.03 -0.02,0.02 -0.02,0.02 -0.02,0.03 -0.03,0.02 -0.02,0.03 -0.03,0.03 -0.02,0.03 -0.03,0.03 -0.03,0.03 -0.03,0.03 -0.03,0.03 -0.03,0.03 -0.04,0.04 -0.03,0.03 -0.03,0.04 -0.04,0.03 -0.04,0.04 -0.04,0.04 c -6.22,6.28 -7.81,15.69 -7.81,23.31 0,8.67 1.89,17.35 8.02,23.56 0.64,0.61 0.64,0.71 0.64,0.86 0,0.35 -0.19,0.49 -0.49,0.49 -0.5,0 -4.98,-3.38 -7.92,-9.7 -2.55,-5.49 -3.14,-11.02 -3.14,-15.21 0,-3.89 0.55,-9.9 3.28,-15.54 2.98,-6.13 7.28,-9.36 7.78,-9.36 0.3,0 0.49,0.14 0.49,0.5 z"
                 inkscape:connector-curvature="0"
                 style="fill:#000000;stroke-width:0" /><path
                 id="path1380"
                 d="m 546.87,408.14 0.2,-0.16 0.21,-0.15 0.2,-0.15 0.2,-0.14 0.2,-0.13 0.21,-0.12 0.2,-0.12 0.2,-0.11 0.2,-0.11 0.21,-0.1 0.2,-0.09 0.2,-0.09 0.2,-0.09 0.2,-0.07 0.21,-0.07 0.2,-0.07 0.2,-0.06 0.2,-0.06 0.4,-0.1 0.4,-0.08 0.39,-0.06 0.4,-0.05 0.39,-0.03 0.39,-0.02 0.38,-0.01 -0.54,1.8 c -0.71,0 -3.05,0 -5.29,2.69 -0.56,0.64 -0.56,0.68 -0.56,1.64 v 10.56 c 0,0.95 0.06,1 0.75,1.69 2,2.04 4.6,2.34 5.69,2.34 3.33,0 6.12,-3.03 6.12,-9.31 0,-7.03 -3.48,-9.61 -6.71,-9.61 l 0.54,-1.8 c 7.47,0 12.55,4.49 12.55,11.41 0,6.62 -4.53,11.31 -11.71,11.31 -3.73,0 -6.37,-1.55 -7.53,-2.44 v 2.44 l -8.81,-0.41 v -2.34 c 3.09,0 3.44,0 3.44,-1.89 v -25.11 h -3.44 v -2.34 c 1.39,0.06 4.39,0.15 6.28,0.15 1.94,0 4.88,-0.09 6.27,-0.15 v 2.34 h -3.44 z"
                 inkscape:connector-curvature="0"
                 style="fill:#000000;stroke-width:0" /><path
                 id="path1382"
                 d="m 582.1,418.65 v 0.37 0.39 l -0.01,0.39 -0.01,0.41 -0.04,0.84 -0.06,0.88 -0.09,0.92 -0.1,0.95 -0.14,0.97 -0.16,1.01 -0.2,1.02 -0.23,1.03 -0.26,1.05 -0.31,1.06 -0.35,1.07 -0.39,1.07 -0.21,0.53 -0.23,0.53 -0.24,0.53 -0.25,0.53 c -2.98,6.12 -7.26,9.36 -7.76,9.36 -0.3,0 -0.5,-0.19 -0.5,-0.49 0,-0.15 0,-0.25 0.94,-1.15 4.89,-4.92 7.73,-12.85 7.73,-23.27 0,-8.51 -1.84,-17.28 -8.03,-23.56 -0.64,-0.59 -0.64,-0.7 -0.64,-0.84 0,-0.3 0.2,-0.5 0.5,-0.5 0.5,0 4.97,3.39 7.92,9.71 2.53,5.47 3.12,11 3.12,15.19 z"
                 inkscape:connector-curvature="0"
                 style="fill:#000000;stroke-width:0" /></g>          </g>
        </g>
      </g>
      <rect
         style="opacity:1;fill:none;fill-opacity:1;stroke:#000000;stroke-width:0.30000001;stroke-miterlimit:4;stroke-dasharray:none;stroke-dashoffset:0"
         id="rect3119-6-5"
         width="32.144352"
         height="9.2119656"
         x="28.308044"
         y="222.62022" />
    </g>
    <g
       transform="translate(1.0583336,-42.190759)"
       id="g3650">
      <g
         transform="translate(0,-4.2333335)"
         id="g2948">
        <text
           id="text1186"
           y="230.11383"
           x="2.7651207"
           style="font-style:normal;font-weight:normal;font-size:10.58333302px;line-height:1.25;font-family:sans-serif;letter-spacing:0px;word-spacing:0px;fill:#000000;fill-opacity:1;stroke:none;stroke-width:0.26458332"
           xml:space="preserve"><tspan
             style="font-size:2.46944451px;stroke-width:0.26458332"
             y="230.11383"
             x="2.7651207"
             id="tspan1184"
             sodipodi:role="line">Hessian of</tspan></text>
        <g
           transform="matrix(0.6,0,0,0.6,-14.790624,225.15645)"
           id="g1532">
          <g
             style="font-style:normal;font-variant:normal;font-weight:normal;font-stretch:normal;letter-spacing:normal;word-spacing:normal;text-anchor:start;fill:none;fill-opacity:1;fill-rule:evenodd;stroke:#000000;stroke-linecap:butt;stroke-linejoin:miter;stroke-miterlimit:10.43299961;stroke-dasharray:none;stroke-dashoffset:0;stroke-opacity:1"
             word-spacing="normal"
             letter-spacing="normal"
             font-size-adjust="none"
             font-stretch="normal"
             font-weight="normal"
             font-variant="normal"
             font-style="normal"
             stroke-miterlimit="10.433"
             xml:space="preserve"
             transform="matrix(0.12095238,0,0,-0.12095238,-21.166667,63.5)"
             id="g1530"><path
               style="fill:#000000;stroke-width:0"
               inkscape:connector-curvature="0"
               id="path1522"
               d="m 475.39,412.92 0.72,0.07 0.71,0.09 0.69,0.11 0.67,0.14 0.66,0.15 0.64,0.18 0.63,0.2 0.61,0.21 0.59,0.23 0.58,0.26 0.55,0.26 0.54,0.29 0.51,0.3 0.5,0.31 0.47,0.33 0.45,0.34 0.43,0.36 0.41,0.37 0.38,0.37 0.36,0.4 0.33,0.4 0.31,0.41 0.28,0.42 0.25,0.42 0.23,0.44 0.19,0.44 0.17,0.45 0.14,0.45 0.11,0.46 0.08,0.47 0.05,0.46 0.01,0.47 c 0,5.19 -5.67,9.72 -13.25,10.32 v -1.1 c 6.88,-0.79 8.29,-5.37 8.29,-9.17 0,-2.98 -0.75,-8.31 -8.29,-9.2 v 18.37 1.1 2.79 c 0,1.69 0,2.39 4.74,2.39 h 1.64 v 1.55 c -1.78,-0.16 -6.38,-0.16 -8.41,-0.16 -2.04,0 -6.68,0 -8.48,0.16 v -1.55 h 1.66 c 4.73,0 4.73,-0.65 4.73,-2.39 v -2.79 -1.14 -18.29 c -7.08,0.94 -7.98,6.04 -7.98,9.11 0,2.6 0.5,8.18 7.98,9.18 v 1.14 c -7.63,-0.74 -12.95,-5.33 -12.95,-10.27 0,-5.12 5.51,-9.56 12.95,-10.31 v -2.78 c 0,-1.71 0,-2.39 -4.73,-2.39 h -1.66 v -1.55 c 1.8,0.16 6.39,0.16 8.42,0.16 2.05,0 6.69,0 8.47,-0.16 v 1.55 h -1.64 c -4.74,0 -4.74,0.64 -4.74,2.39 z" /><path
               style="fill:#000000;stroke-width:0"
               inkscape:connector-curvature="0"
               id="path1524"
               d="m 508,394.25 v 0.02 0.03 0.01 0.02 0.01 l -0.01,0.02 v 0.01 l -0.01,0.02 -0.01,0.02 -0.01,0.02 -0.01,0.02 -0.02,0.03 -0.01,0.02 -0.02,0.03 -0.02,0.03 -0.03,0.03 -0.02,0.03 -0.03,0.04 -0.02,0.02 -0.01,0.02 -0.02,0.02 -0.02,0.02 -0.02,0.02 -0.02,0.03 -0.02,0.02 -0.02,0.02 -0.02,0.03 -0.03,0.02 -0.02,0.03 -0.03,0.03 -0.03,0.03 -0.02,0.03 -0.03,0.03 -0.03,0.03 -0.03,0.03 -0.03,0.03 -0.04,0.04 -0.03,0.03 -0.04,0.04 -0.03,0.03 -0.04,0.04 -0.04,0.04 c -6.22,6.28 -7.81,15.69 -7.81,23.31 0,8.67 1.89,17.35 8.01,23.56 0.64,0.61 0.64,0.71 0.64,0.86 0,0.35 -0.18,0.49 -0.48,0.49 -0.5,0 -4.98,-3.38 -7.92,-9.7 -2.55,-5.49 -3.14,-11.02 -3.14,-15.21 0,-3.89 0.54,-9.9 3.28,-15.54 2.98,-6.13 7.28,-9.36 7.78,-9.36 0.3,0 0.48,0.14 0.48,0.5 z" /><path
               style="fill:#000000;stroke-width:0"
               inkscape:connector-curvature="0"
               id="path1526"
               d="m 521.79,408.14 0.2,-0.16 0.2,-0.15 0.21,-0.15 0.2,-0.14 0.2,-0.13 0.2,-0.12 0.21,-0.12 0.2,-0.11 0.2,-0.11 0.2,-0.1 0.21,-0.09 0.2,-0.09 0.2,-0.09 0.2,-0.07 0.2,-0.07 0.21,-0.07 0.2,-0.06 0.2,-0.06 0.4,-0.1 0.39,-0.08 0.4,-0.06 0.39,-0.05 0.4,-0.03 0.38,-0.02 0.39,-0.01 -0.55,1.8 c -0.7,0 -3.04,0 -5.28,2.69 -0.56,0.64 -0.56,0.68 -0.56,1.64 v 10.56 c 0,0.95 0.06,1 0.75,1.69 2,2.04 4.59,2.34 5.69,2.34 3.32,0 6.12,-3.03 6.12,-9.31 0,-7.03 -3.48,-9.61 -6.72,-9.61 l 0.55,-1.8 c 7.47,0 12.55,4.49 12.55,11.41 0,6.62 -4.53,11.31 -11.71,11.31 -3.73,0 -6.37,-1.55 -7.53,-2.44 v 2.44 l -8.81,-0.41 v -2.34 c 3.09,0 3.44,0 3.44,-1.89 v -25.11 h -3.44 v -2.34 c 1.39,0.06 4.39,0.15 6.28,0.15 1.94,0 4.88,-0.09 6.27,-0.15 v 2.34 h -3.44 z" /><path
               style="fill:#000000;stroke-width:0"
               inkscape:connector-curvature="0"
               id="path1528"
               d="m 557.02,418.65 v 0.37 0.39 l -0.01,0.39 -0.02,0.41 -0.04,0.84 -0.06,0.88 -0.08,0.92 -0.1,0.95 -0.14,0.97 -0.16,1.01 -0.2,1.02 -0.23,1.03 -0.27,1.05 -0.3,1.06 -0.35,1.07 -0.39,1.07 -0.22,0.53 -0.22,0.53 -0.24,0.53 -0.25,0.53 c -2.98,6.12 -7.26,9.36 -7.76,9.36 -0.3,0 -0.5,-0.19 -0.5,-0.49 0,-0.15 0,-0.25 0.93,-1.15 4.89,-4.92 7.74,-12.85 7.74,-23.27 0,-8.51 -1.85,-17.28 -8.03,-23.56 -0.64,-0.59 -0.64,-0.7 -0.64,-0.84 0,-0.3 0.2,-0.5 0.5,-0.5 0.5,0 4.97,3.39 7.92,9.71 2.53,5.47 3.12,11 3.12,15.19 z" /></g>        </g>
      </g>
      <rect
         style="opacity:1;fill:none;fill-opacity:1;stroke:#000000;stroke-width:0.30000001;stroke-miterlimit:4;stroke-dasharray:none;stroke-dashoffset:0"
         id="rect3119-6-5-6"
         width="15.702015"
         height="9.2972441"
         x="1.5007054"
         y="222.57759" />
    </g>
    <path
       inkscape:connector-curvature="0"
       id="path3652"
       d="m 10.410046,178.46572 c 0,1.85401 0,1.85401 0,1.85401"
       style="fill:none;stroke:#000000;stroke-width:0.40000001;stroke-linecap:butt;stroke-linejoin:miter;stroke-miterlimit:4;stroke-dasharray:none;stroke-opacity:1" />
    <path
       inkscape:connector-curvature="0"
       id="path3652-2"
       d="m 10.410046,189.80872 c 0,1.85401 0,1.85401 0,1.85401"
       style="fill:none;stroke:#000000;stroke-width:0.40000001;stroke-linecap:butt;stroke-linejoin:miter;stroke-miterlimit:4;stroke-dasharray:none;stroke-opacity:1" />
    <path
       inkscape:connector-curvature="0"
       id="path3652-2-9"
       d="m 46.496888,189.80872 c 0,1.85401 0,1.85401 0,1.85401"
       style="fill:none;stroke:#000000;stroke-width:0.40000001;stroke-linecap:butt;stroke-linejoin:miter;stroke-miterlimit:4;stroke-dasharray:none;stroke-opacity:1" />
    <g
       id="g8354">
      <path
         style="fill:none;stroke:#000000;stroke-width:0.40000001;stroke-linecap:butt;stroke-linejoin:miter;stroke-miterlimit:4;stroke-dasharray:none;stroke-opacity:1"
         d="m 46.502516,197.70626 c 0,1.85401 0,1.85401 0,1.85401"
         id="path3652-2-9-2"
         inkscape:connector-curvature="0" />
      <path
         style="fill:none;stroke:#000000;stroke-width:0.40000001;stroke-linecap:butt;stroke-linejoin:miter;stroke-miterlimit:4;stroke-dasharray:none;stroke-opacity:1"
         d="m 74.757884,197.73986 c 0,1.85401 0,1.85401 0,1.85401"
         id="path3652-2-9-7"
         inkscape:connector-curvature="0" />
      <path
         inkscape:connector-curvature="0"
         id="path3975"
         d="m 46.339039,199.56045 28.421815,0.0332 v 0"
         style="fill:none;stroke:#000000;stroke-width:0.4;stroke-linecap:butt;stroke-linejoin:miter;stroke-miterlimit:4;stroke-dasharray:none;stroke-opacity:1" />
      <path
         style="fill:none;stroke:#000000;stroke-width:0.40000001;stroke-linecap:butt;stroke-linejoin:miter;stroke-miterlimit:4;stroke-dasharray:none;stroke-opacity:1"
         d="m 60.630201,199.79387 c 0,1.85401 0,1.85401 0,1.85401"
         id="path3652-2-9-7-0"
         inkscape:connector-curvature="0" />
    </g>
    <path
       inkscape:connector-curvature="0"
       id="path3652-2-9-7-0-3"
       d="m 35.861801,204.67858 c 0,4.95174 0,4.95174 0,4.95174"
       style="fill:none;stroke:#000000;stroke-width:0.40000001;stroke-linecap:butt;stroke-linejoin:miter;stroke-miterlimit:4;stroke-dasharray:none;stroke-opacity:1" />
    <path
       style="fill:none;stroke:#000000;stroke-width:0.4;stroke-linecap:butt;stroke-linejoin:miter;stroke-miterlimit:4;stroke-dasharray:none;stroke-opacity:1"
       d="m 18.411054,185.03545 h 5.986924"
       id="path4098"
       inkscape:connector-curvature="0" />
    <path
       style="fill:none;stroke:#000000;stroke-width:0.4;stroke-linecap:butt;stroke-linejoin:miter;stroke-miterlimit:4;stroke-dasharray:none;stroke-opacity:1"
       d="M 51.083586,216.85387 H 64.238677"
       id="path4098-6"
       inkscape:connector-curvature="0"
       sodipodi:nodetypes="cc" />
    <text
       xml:space="preserve"
       style="font-style:normal;font-weight:normal;font-size:2.46944427px;line-height:1.25;font-family:sans-serif;text-align:center;letter-spacing:0px;word-spacing:0px;text-anchor:middle;fill:#000000;fill-opacity:1;stroke:none;stroke-width:0.26458332"
       x="33.094784"
       y="217.66736"
       id="text4102"><tspan
         sodipodi:role="line"
         x="33.094784"
         y="217.66736"
         style="text-align:center;text-anchor:middle;stroke-width:0.26458332"
         id="tspan4112">Is C1 satisfied?</tspan></text>
    <rect
       style="opacity:1;fill:none;fill-opacity:1;stroke:#000000;stroke-width:0.31019971;stroke-miterlimit:4;stroke-dasharray:none;stroke-dashoffset:0"
       id="rect4129"
       width="30.133369"
       height="14.136909"
       x="20.795116"
       y="209.78542"
       rx="2"
       ry="2" />
    <text
       xml:space="preserve"
       style="font-style:normal;font-weight:normal;font-size:2.46944451px;line-height:1.25;font-family:sans-serif;letter-spacing:0px;word-spacing:0px;fill:#000000;fill-opacity:1;stroke:none;stroke-width:0.26458332"
       x="64.914398"
       y="217.52791"
       id="text4156"><tspan
         sodipodi:role="line"
         id="tspan4154"
         x="64.914398"
         y="217.52791"
         style="font-size:2.46944451px;stroke-width:0.26458332">no</tspan></text>
    <path
       inkscape:connector-curvature="0"
       id="path3652-2-9-7-6"
       d="m 80.263385,216.96279 c 0,-18.61796 0,-18.61796 0,-18.61796"
       style="fill:none;stroke:#000000;stroke-width:0.39652506;stroke-linecap:butt;stroke-linejoin:miter;stroke-miterlimit:4;stroke-dasharray:none;stroke-opacity:1;marker-end:url(#marker4698)" />
    <path
       style="fill:none;stroke:#000000;stroke-width:0.4;stroke-linecap:butt;stroke-linejoin:miter;stroke-miterlimit:4;stroke-dasharray:none;stroke-opacity:1"
       d="M 68.565763,216.85387 H 80.401634"
       id="path4098-6-2"
       inkscape:connector-curvature="0"
       sodipodi:nodetypes="cc" />
    <path
       style="fill:none;stroke:#000000;stroke-width:0.4;stroke-linecap:butt;stroke-linejoin:miter;stroke-miterlimit:4;stroke-dasharray:none;stroke-opacity:1"
       d="m 24.235134,204.67688 28.866613,0.0333 v 0"
       id="path3975-6"
       inkscape:connector-curvature="0" />
    <path
       style="fill:none;stroke:#000000;stroke-width:0.4;stroke-linecap:butt;stroke-linejoin:miter;stroke-miterlimit:4;stroke-dasharray:none;stroke-opacity:1"
       d="m 28.982635,224.07742 c 0,10.39028 0,10.62123 0,10.62123"
       id="path4221"
       inkscape:connector-curvature="0" />
    <text
       xml:space="preserve"
       style="font-style:normal;font-weight:normal;font-size:2.46944451px;line-height:1.25;font-family:sans-serif;letter-spacing:0px;word-spacing:0px;fill:#000000;fill-opacity:1;stroke:none;stroke-width:0.26458332"
       x="26.872513"
       y="237.08856"
       id="text4156-1"><tspan
         sodipodi:role="line"
         id="tspan4154-8"
         x="26.872513"
         y="237.08856"
         style="font-size:2.46944451px;stroke-width:0.26458332">yes</tspan></text>
    <path
       style="fill:none;stroke:#000000;stroke-width:0.4;stroke-linecap:butt;stroke-linejoin:miter;stroke-miterlimit:4;stroke-dasharray:none;stroke-opacity:1"
       d="m 28.982635,238.08894 c 0,12.71478 0,12.99739 0,12.99739"
       id="path4221-7"
       inkscape:connector-curvature="0" />
    <path
       inkscape:connector-curvature="0"
       id="path3652-2-9-7-0-3-0"
       d="m 10.406203,197.83932 c 0,23.86101 0,23.86101 0,23.86101"
       style="fill:none;stroke:#000000;stroke-width:0.40000001;stroke-linecap:butt;stroke-linejoin:miter;stroke-miterlimit:4;stroke-dasharray:none;stroke-opacity:1;marker-end:url(#marker4842-9)" />
    <path
       inkscape:connector-curvature="0"
       id="path3652-2-9-23"
       d="m 24.233063,185.08843 c 0,19.7162 0,19.7162 0,19.7162"
       style="fill:none;stroke:#000000;stroke-width:0.4;stroke-linecap:butt;stroke-linejoin:miter;stroke-miterlimit:4;stroke-dasharray:none;stroke-opacity:1" />
    <path
       inkscape:connector-curvature="0"
       id="path3652-2-9-7-7"
       d="m 46.496887,239.0524 c 0,1.85401 0,1.85401 0,1.85401"
       style="fill:none;stroke:#000000;stroke-width:0.40000001;stroke-linecap:butt;stroke-linejoin:miter;stroke-miterlimit:4;stroke-dasharray:none;stroke-opacity:1" />
    <g
       id="g8217"
       transform="translate(5.9384841,-1.14027)">
      <rect
         style="opacity:1;fill:none;fill-opacity:1;stroke:#000000;stroke-width:0.30000001;stroke-miterlimit:4;stroke-dasharray:none;stroke-dashoffset:0"
         id="rect3119-6-5-4"
         width="15.438408"
         height="9.3030329"
         x="32.839199"
         y="230.73964" />
      <g
         id="g8204">
        <text
           id="text1186-2-5"
           y="234.08974"
           x="33.971809"
           style="font-style:normal;font-weight:normal;font-size:10.58333302px;line-height:1.25;font-family:sans-serif;letter-spacing:0px;word-spacing:0px;fill:#000000;fill-opacity:1;stroke:none;stroke-width:0.26458332"
           xml:space="preserve"><tspan
             style="font-size:2.46944451px;stroke-width:0.26458332"
             y="234.08974"
             x="33.971809"
             id="tspan1184-7-6"
             sodipodi:role="line">Hessian of</tspan></text>
        <g
           transform="matrix(0.6,0,0,0.6,15.504568,209.99378)"
           id="g6248">
          <g
             style="font-style:normal;font-variant:normal;font-weight:normal;font-stretch:normal;letter-spacing:normal;word-spacing:normal;text-anchor:start;fill:none;fill-opacity:1;fill-rule:evenodd;stroke:#000000;stroke-linecap:butt;stroke-linejoin:miter;stroke-miterlimit:10.43299961;stroke-dasharray:none;stroke-dashoffset:0;stroke-opacity:1"
             id="g6246"
             transform="matrix(0.12095238,0,0,-0.12095238,-21.166667,95.25)"
             xml:space="preserve"
             stroke-miterlimit="10.433"
             font-style="normal"
             font-variant="normal"
             font-weight="normal"
             font-stretch="normal"
             font-size-adjust="none"
             letter-spacing="normal"
             word-spacing="normal"><path
               style="fill:#000000;stroke-width:0"
               inkscape:connector-curvature="0"
               d="m 476.8,436.29 v 0.16 0.15 0.14 l 0.01,0.14 0.01,0.13 0.01,0.13 0.02,0.12 0.02,0.12 0.04,0.11 0.04,0.11 0.04,0.1 0.06,0.09 0.07,0.09 0.08,0.09 0.09,0.08 0.1,0.07 0.12,0.07 0.06,0.03 0.07,0.04 0.07,0.03 0.08,0.03 0.08,0.03 0.08,0.02 0.09,0.03 0.09,0.02 0.1,0.03 0.1,0.02 0.11,0.02 0.11,0.02 0.12,0.02 0.12,0.02 0.13,0.01 0.13,0.02 0.14,0.01 0.14,0.02 0.15,0.01 0.16,0.01 0.16,0.01 0.16,0.01 0.17,0.01 0.18,0.01 h 0.19 l 0.19,0.01 h 0.2 0.2 0.21 0.22 1.66 v 1.55 c -1.8,-0.16 -6.38,-0.16 -8.43,-0.16 -2.04,0 -6.67,0 -8.46,0.16 v -1.55 h 1.64 c 4.73,0 4.73,-0.65 4.73,-2.39 v -22.12 c -6.53,1.75 -6.78,9.42 -6.78,12.65 -0.05,6.04 -2.24,6.97 -4.44,6.97 h -1.84 c -0.74,0 -1.24,0 -1.24,-0.54 0,-0.25 0.14,-0.49 0.44,-0.55 1.66,-0.19 2.89,-0.89 2.95,-6.77 0,-1.15 0.14,-5.09 2.54,-8.42 1.95,-2.69 4.98,-4.14 8.37,-4.59 v -2.78 c 0,-1.71 0,-2.39 -4.73,-2.39 h -1.64 v -1.55 c 1.79,0.16 6.37,0.16 8.42,0.16 2.03,0 6.67,0 8.47,-0.16 v 1.55 h -1.66 c -4.72,0 -4.72,0.64 -4.72,2.39 v 2.78 c 3.58,0.45 6.63,1.95 8.56,4.54 2.6,3.54 2.64,7.47 2.64,9.66 0,0.8 0.05,5.24 2.74,5.58 0.3,0.06 0.65,0.11 0.65,0.55 0,0.54 -0.4,0.54 -1.2,0.54 h -1.89 c -1.94,0 -4.39,-0.34 -4.44,-7.56 -0.04,-5.48 -1.68,-10.77 -7.06,-12.06 z"
               id="path6236" /><path
               style="fill:#000000;stroke-width:0"
               inkscape:connector-curvature="0"
               d="m 505.95,420.92 v 0.04 0.04 0.05 0.04 0.03 0.04 0.04 0.03 0.04 0.03 l -0.01,0.03 v 0.03 0.03 0.03 l -0.01,0.03 v 0.02 l -0.01,0.03 v 0.02 l -0.01,0.03 v 0.02 l -0.01,0.04 -0.02,0.04 -0.02,0.03 -0.01,0.03 -0.03,0.03 -0.02,0.03 -0.03,0.02 -0.03,0.02 -0.03,0.02 -0.04,0.01 -0.04,0.01 -0.04,0.02 h -0.03 -0.02 l -0.03,0.01 h -0.02 l -0.03,0.01 h -0.03 -0.03 -0.03 -0.03 l -0.04,0.01 h -0.03 -0.04 -0.03 -0.04 -0.04 -0.04 -0.04 -0.04 -0.05 -0.04 c -2.24,-2.2 -5.39,-2.23 -6.83,-2.23 v -1.25 c 0.84,0 3.14,0 5.04,0.97 v -17.77 c 0,-1.16 0,-1.61 -3.48,-1.61 h -1.31 v -1.25 c 0.62,0.03 4.9,0.14 6.2,0.14 1.08,0 5.47,-0.11 6.24,-0.14 v 1.25 h -1.33 c -3.49,0 -3.49,0.45 -3.49,1.61 z"
               id="path6238" /><path
               style="fill:#000000;stroke-width:0"
               inkscape:connector-curvature="0"
               d="m 533.09,394.25 v 0.02 l -0.01,0.03 v 0.01 0.02 0.01 l -0.01,0.02 v 0.01 l -0.01,0.02 -0.01,0.02 -0.01,0.02 -0.01,0.02 -0.01,0.03 -0.02,0.02 -0.02,0.03 -0.02,0.03 -0.02,0.03 -0.03,0.03 -0.03,0.04 -0.02,0.02 -0.01,0.02 -0.02,0.02 -0.02,0.02 -0.02,0.02 -0.02,0.03 -0.02,0.02 -0.02,0.02 -0.02,0.03 -0.03,0.02 -0.02,0.03 -0.03,0.03 -0.02,0.03 -0.03,0.03 -0.03,0.03 -0.03,0.03 -0.03,0.03 -0.03,0.03 -0.04,0.04 -0.03,0.03 -0.03,0.04 -0.04,0.03 -0.04,0.04 -0.04,0.04 c -6.22,6.28 -7.81,15.69 -7.81,23.31 0,8.67 1.89,17.35 8.02,23.56 0.64,0.61 0.64,0.71 0.64,0.86 0,0.35 -0.19,0.49 -0.49,0.49 -0.5,0 -4.98,-3.38 -7.92,-9.7 -2.55,-5.49 -3.14,-11.02 -3.14,-15.21 0,-3.89 0.55,-9.9 3.28,-15.54 2.98,-6.13 7.28,-9.36 7.78,-9.36 0.3,0 0.49,0.14 0.49,0.5 z"
               id="path6240" /><path
               style="fill:#000000;stroke-width:0"
               inkscape:connector-curvature="0"
               d="m 546.87,408.14 0.2,-0.16 0.21,-0.15 0.2,-0.15 0.2,-0.14 0.2,-0.13 0.21,-0.12 0.2,-0.12 0.2,-0.11 0.2,-0.11 0.21,-0.1 0.2,-0.09 0.2,-0.09 0.2,-0.09 0.2,-0.07 0.21,-0.07 0.2,-0.07 0.2,-0.06 0.2,-0.06 0.4,-0.1 0.4,-0.08 0.39,-0.06 0.4,-0.05 0.39,-0.03 0.39,-0.02 0.38,-0.01 -0.54,1.8 c -0.71,0 -3.05,0 -5.29,2.69 -0.56,0.64 -0.56,0.68 -0.56,1.64 v 10.56 c 0,0.95 0.06,1 0.75,1.69 2,2.04 4.6,2.34 5.69,2.34 3.33,0 6.12,-3.03 6.12,-9.31 0,-7.03 -3.48,-9.61 -6.71,-9.61 l 0.54,-1.8 c 7.47,0 12.55,4.49 12.55,11.41 0,6.62 -4.53,11.31 -11.71,11.31 -3.73,0 -6.37,-1.55 -7.53,-2.44 v 2.44 l -8.81,-0.41 v -2.34 c 3.09,0 3.44,0 3.44,-1.89 v -25.11 h -3.44 v -2.34 c 1.39,0.06 4.39,0.15 6.28,0.15 1.94,0 4.88,-0.09 6.27,-0.15 v 2.34 h -3.44 z"
               id="path6242" /><path
               style="fill:#000000;stroke-width:0"
               inkscape:connector-curvature="0"
               d="m 582.1,418.65 v 0.37 0.39 l -0.01,0.39 -0.01,0.41 -0.04,0.84 -0.06,0.88 -0.09,0.92 -0.1,0.95 -0.14,0.97 -0.16,1.01 -0.2,1.02 -0.23,1.03 -0.26,1.05 -0.31,1.06 -0.35,1.07 -0.39,1.07 -0.21,0.53 -0.23,0.53 -0.24,0.53 -0.25,0.53 c -2.98,6.12 -7.26,9.36 -7.76,9.36 -0.3,0 -0.5,-0.19 -0.5,-0.49 0,-0.15 0,-0.25 0.94,-1.15 4.89,-4.92 7.73,-12.85 7.73,-23.27 0,-8.51 -1.84,-17.28 -8.03,-23.56 -0.64,-0.59 -0.64,-0.7 -0.64,-0.84 0,-0.3 0.2,-0.5 0.5,-0.5 0.5,0 4.97,3.39 7.92,9.71 2.53,5.47 3.12,11 3.12,15.19 z"
               id="path6244" /></g>        </g>
      </g>
    </g>
    <g
       id="g8284"
       transform="translate(-7.0094622,-14.069093)">
      <g
         id="g7900"
         transform="matrix(0.6,0,0,0.6,12.711908,241.85386)">
        <g
           id="g7898"
           transform="matrix(0.12095238,0,0,-0.12095238,-21.166667,95.25)"
           xml:space="preserve"
           stroke-miterlimit="10.433"
           font-style="normal"
           font-variant="normal"
           font-weight="normal"
           font-stretch="normal"
           font-size-adjust="none"
           letter-spacing="normal"
           word-spacing="normal"
           style="font-style:normal;font-variant:normal;font-weight:normal;font-stretch:normal;letter-spacing:normal;word-spacing:normal;text-anchor:start;fill:none;fill-opacity:1;fill-rule:evenodd;stroke:#000000;stroke-linecap:butt;stroke-linejoin:miter;stroke-miterlimit:10.43299961;stroke-dasharray:none;stroke-dashoffset:0;stroke-opacity:1"><path
             d="m 466.47,408.14 0.21,-0.16 0.2,-0.15 0.2,-0.15 0.2,-0.14 0.21,-0.13 0.2,-0.12 0.2,-0.12 0.2,-0.11 0.21,-0.11 0.2,-0.1 0.2,-0.09 0.2,-0.09 0.2,-0.09 0.21,-0.07 0.2,-0.07 0.2,-0.07 0.2,-0.06 0.2,-0.06 0.4,-0.1 0.4,-0.08 0.39,-0.06 0.4,-0.05 0.39,-0.03 0.39,-0.02 0.38,-0.01 -0.54,1.8 c -0.71,0 -3.05,0 -5.28,2.69 -0.57,0.64 -0.57,0.68 -0.57,1.64 v 10.56 c 0,0.95 0.07,1 0.75,1.69 2,2.04 4.6,2.34 5.69,2.34 3.33,0 6.13,-3.03 6.13,-9.31 0,-7.03 -3.49,-9.61 -6.72,-9.61 l 0.54,-1.8 c 7.47,0 12.55,4.49 12.55,11.41 0,6.62 -4.53,11.31 -11.7,11.31 -3.74,0 -6.38,-1.55 -7.53,-2.44 v 2.44 l -8.82,-0.41 v -2.34 c 3.1,0 3.44,0 3.44,-1.89 v -25.11 h -3.44 v -2.34 c 1.39,0.06 4.39,0.15 6.28,0.15 1.94,0 4.88,-0.09 6.27,-0.15 v 2.34 h -3.44 z"
             id="path7890"
             inkscape:connector-curvature="0"
             style="fill:#000000;stroke-width:0" /><path
             d="m 499.7,450.34 -0.61,-0.45 -0.58,-0.46 -0.55,-0.47 -0.53,-0.49 -0.5,-0.5 -0.47,-0.51 -0.45,-0.53 -0.42,-0.53 -0.4,-0.54 -0.37,-0.55 -0.36,-0.56 -0.33,-0.56 -0.31,-0.57 -0.28,-0.57 -0.27,-0.58 -0.25,-0.58 -0.22,-0.58 -0.21,-0.58 -0.19,-0.59 -0.18,-0.58 -0.15,-0.58 -0.14,-0.58 -0.13,-0.57 -0.1,-0.57 -0.1,-0.57 -0.07,-0.56 -0.07,-0.55 -0.05,-0.55 -0.04,-0.53 -0.03,-0.53 -0.01,-0.52 -0.01,-0.5 c 0,-4.92 1.47,-12.55 8.38,-17.42 0.28,0 0.68,0 0.68,0.4 0,0.22 -0.09,0.28 -0.34,0.53 -4.64,4.19 -6.34,10.11 -6.34,16.46 0,9.4 3.59,14 6.45,16.58 0.14,0.14 0.23,0.25 0.23,0.42 0,0.42 -0.4,0.42 -0.68,0.42 z"
             id="path7892"
             inkscape:connector-curvature="0"
             style="fill:#000000;stroke-width:0" /><path
             d="m 514.59,446.36 v 0.04 0.04 0.04 0.04 0.04 0.04 0.04 0.03 l -0.01,0.04 v 0.03 0.03 0.03 0.03 l -0.01,0.03 v 0.03 l -0.01,0.02 v 0.03 0.02 l -0.01,0.02 v 0.03 l -0.02,0.04 -0.01,0.04 -0.02,0.03 -0.02,0.03 -0.02,0.03 -0.02,0.03 -0.03,0.02 -0.03,0.02 -0.04,0.01 -0.03,0.02 -0.04,0.01 -0.05,0.01 -0.05,0.01 -0.02,0.01 h -0.03 -0.03 l -0.02,0.01 h -0.03 -0.03 -0.04 -0.03 l -0.03,0.01 h -0.04 -0.04 -0.03 -0.04 -0.04 -0.04 -0.05 -0.04 -0.05 c -2.23,-2.2 -5.39,-2.23 -6.83,-2.23 v -1.25 c 0.85,0 3.15,0 5.05,0.96 v -17.76 c 0,-1.16 0,-1.61 -3.48,-1.61 h -1.32 v -1.25 c 0.63,0.03 4.91,0.14 6.21,0.14 1.08,0 5.47,-0.11 6.23,-0.14 v 1.25 h -1.33 c -3.48,0 -3.48,0.45 -3.48,1.61 z"
             id="path7894"
             inkscape:connector-curvature="0"
             style="fill:#000000;stroke-width:0" /><path
             d="m 525.85,450.34 h -0.02 -0.02 -0.03 -0.03 -0.02 -0.03 -0.03 l -0.03,-0.01 h -0.02 -0.03 l -0.03,-0.01 h -0.03 l -0.02,-0.01 -0.03,-0.01 h -0.03 l -0.02,-0.01 -0.03,-0.01 -0.02,-0.02 -0.03,-0.01 -0.02,-0.01 -0.02,-0.02 -0.02,-0.02 -0.02,-0.02 -0.01,-0.01 -0.01,-0.01 v -0.01 l -0.01,-0.01 -0.01,-0.01 -0.01,-0.02 v -0.01 l -0.01,-0.01 v -0.02 l -0.01,-0.01 v -0.02 l -0.01,-0.01 v -0.02 -0.02 -0.02 -0.01 l -0.01,-0.02 v -0.02 c 0,-0.17 0.11,-0.28 0.32,-0.53 3,-2.75 6.34,-7.46 6.34,-16.44 0,-7.28 -2.27,-12.8 -6.03,-16.2 -0.58,-0.6 -0.63,-0.63 -0.63,-0.82 0,-0.17 0.11,-0.4 0.46,-0.4 0.42,0 3.73,2.29 6.03,6.65 1.53,2.89 2.55,6.66 2.55,10.74 0,4.9 -1.47,12.53 -8.37,17.42 z"
             id="path7896"
             inkscape:connector-curvature="0"
             style="fill:#000000;stroke-width:0" /></g>      </g>
      <rect
         style="opacity:1;fill:none;fill-opacity:1;stroke:#000000;stroke-width:0.30000001;stroke-miterlimit:4;stroke-dasharray:none;stroke-dashoffset:0"
         id="rect3119-8"
         width="8.3220139"
         height="5.9382896"
         x="31.831089"
         y="265.30542" />
    </g>
    <g
       id="g8318"
       transform="translate(7.0653242,-11.494472)">
      <g
         id="g6882"
         transform="matrix(0.6,0,0,0.6,45.504206,228.78617)">
        <g
           word-spacing="normal"
           letter-spacing="normal"
           font-size-adjust="none"
           font-stretch="normal"
           font-weight="normal"
           font-variant="normal"
           font-style="normal"
           stroke-miterlimit="10.433"
           xml:space="preserve"
           transform="matrix(0.12095238,0,0,-0.12095238,-21.166667,95.25)"
           id="g6880"
           style="font-style:normal;font-variant:normal;font-weight:normal;font-stretch:normal;letter-spacing:normal;word-spacing:normal;text-anchor:start;fill:none;fill-opacity:1;fill-rule:evenodd;stroke:#000000;stroke-linecap:butt;stroke-linejoin:miter;stroke-miterlimit:10.43299961;stroke-dasharray:none;stroke-dashoffset:0;stroke-opacity:1"><path
             id="path6874"
             d="m 481.28,438.73 -0.8,0.75 c 0,-0.05 -1.89,-2.39 -4.08,-2.39 -1.14,0 -2.39,0.75 -3.23,1.25 -1.35,0.8 -2.25,1.14 -3.1,1.14 -1.89,0 -2.84,-1.09 -5.37,-3.89 l 0.8,-0.75 c 0,0.06 1.89,2.39 4.07,2.39 1.14,0 2.39,-0.73 3.24,-1.23 1.34,-0.8 2.25,-1.16 3.09,-1.16 1.89,0 2.85,1.11 5.38,3.89 z"
             inkscape:connector-curvature="0"
             style="fill:#000000;stroke-width:0" /><path
             id="path6876"
             d="m 479.28,417.96 v 0.37 l -0.01,0.35 -0.02,0.35 -0.02,0.34 -0.07,0.65 -0.09,0.63 -0.11,0.59 -0.13,0.57 -0.16,0.54 -0.17,0.51 -0.2,0.49 -0.21,0.45 -0.23,0.44 -0.24,0.4 -0.26,0.38 -0.28,0.36 -0.28,0.33 -0.3,0.31 -0.31,0.29 -0.32,0.26 -0.33,0.24 -0.33,0.22 -0.34,0.2 -0.35,0.18 -0.35,0.16 -0.36,0.14 -0.36,0.12 -0.36,0.11 -0.36,0.09 -0.36,0.06 -0.36,0.06 -0.36,0.04 -0.35,0.02 h -0.35 l -0.04,-1.09 c 4.93,0 4.93,-6.53 4.93,-10.41 0,-1.84 0,-4.73 0.1,-5.57 v 0 c -4.38,-3.85 -8.22,-4.39 -10.21,-4.39 -3,0 -4.48,2.25 -4.48,5.43 0,2.44 1.3,7.82 2.89,10.36 2.33,3.64 5.03,4.58 6.77,4.58 l 0.04,1.09 c -6.81,0 -13.39,-7.12 -13.39,-14.14 0,-4.64 2.99,-8.42 8.06,-8.42 3.15,0 6.74,1.14 10.52,4.19 0.66,-2.64 2.3,-4.19 4.53,-4.19 2.64,0 4.19,2.74 4.19,3.53 0,0.36 -0.3,0.5 -0.59,0.5 -0.36,0 -0.5,-0.14 -0.66,-0.5 -0.89,-2.43 -2.69,-2.43 -2.78,-2.43 -1.55,0 -1.55,3.89 -1.55,5.07 0,1.05 0,1.16 0.5,1.75 4.69,5.88 5.74,11.66 5.74,11.71 0,0.11 -0.07,0.5 -0.61,0.5 -0.5,0 -0.5,-0.14 -0.75,-1.05 -0.89,-3.14 -2.54,-6.92 -4.88,-9.86 z"
             inkscape:connector-curvature="0"
             style="fill:#000000;stroke-width:0" /><path
             id="path6878"
             d="m 499.11,420.92 v 0.04 0.04 0.05 0.04 0.03 0.04 0.04 0.03 0.04 0.03 l -0.01,0.03 v 0.03 0.03 0.03 l -0.01,0.03 v 0.02 l -0.01,0.03 v 0.02 l -0.01,0.03 v 0.02 l -0.01,0.04 -0.02,0.04 -0.02,0.03 -0.01,0.03 -0.03,0.03 -0.02,0.03 -0.03,0.02 -0.03,0.02 -0.03,0.02 -0.04,0.01 -0.04,0.01 -0.04,0.02 h -0.03 -0.02 l -0.03,0.01 h -0.02 l -0.03,0.01 h -0.03 -0.03 -0.03 -0.03 l -0.04,0.01 h -0.03 -0.04 -0.03 -0.04 -0.04 -0.04 -0.04 -0.04 -0.05 -0.04 c -2.24,-2.2 -5.39,-2.23 -6.83,-2.23 v -1.25 c 0.84,0 3.14,0 5.05,0.97 v -17.77 c 0,-1.16 0,-1.61 -3.49,-1.61 h -1.31 v -1.25 c 0.62,0.03 4.9,0.14 6.2,0.14 1.08,0 5.47,-0.11 6.24,-0.14 v 1.25 h -1.33 c -3.49,0 -3.49,0.45 -3.49,1.61 z"
             inkscape:connector-curvature="0"
             style="fill:#000000;stroke-width:0" /></g>      </g>
      <rect
         style="opacity:1;fill:none;fill-opacity:1;stroke:#000000;stroke-width:0.30000001;stroke-miterlimit:4;stroke-dasharray:none;stroke-dashoffset:0"
         id="rect3119-8-8"
         width="8.3220139"
         height="5.9382896"
         x="63.531551"
         y="252.55089" />
    </g>
    <g
       id="g8303"
       transform="translate(-0.30673238,-1.4084881)">
      <g
         id="g7550"
         transform="matrix(0.6,0,0,0.6,24.446902,218.7216)">
        <g
           word-spacing="normal"
           letter-spacing="normal"
           font-size-adjust="none"
           font-stretch="normal"
           font-weight="normal"
           font-variant="normal"
           font-style="normal"
           stroke-miterlimit="10.433"
           xml:space="preserve"
           transform="matrix(0.12095238,0,0,-0.12095238,-21.166667,95.25)"
           id="g7548"
           style="font-style:normal;font-variant:normal;font-weight:normal;font-stretch:normal;letter-spacing:normal;word-spacing:normal;text-anchor:start;fill:none;fill-opacity:1;fill-rule:evenodd;stroke:#000000;stroke-linecap:butt;stroke-linejoin:miter;stroke-miterlimit:10.43299961;stroke-dasharray:none;stroke-dashoffset:0;stroke-opacity:1"><path
             id="path7544"
             d="m 490.8,417.81 0.01,0.02 0.01,0.03 0.02,0.05 0.02,0.05 0.02,0.05 0.02,0.05 0.02,0.05 0.02,0.05 0.01,0.05 0.01,0.03 0.01,0.02 0.01,0.02 0.01,0.03 v 0.02 l 0.01,0.02 0.01,0.02 v 0.02 l 0.01,0.02 v 0.02 l 0.01,0.01 v 0.02 0.02 0.01 0.01 l 0.01,0.01 c 0,0.05 0,0.55 -0.6,0.55 -0.45,0 -0.55,-0.3 -0.64,-0.61 -3.25,-7.38 -5.08,-10.7 -13.61,-10.7 h -7.26 c -0.71,0 -0.8,0 -1.1,0.04 -0.5,0.05 -0.65,0.1 -0.65,0.5 0,0.14 0,0.25 0.25,1.14 l 3.39,13.61 h 4.93 c 4.24,0 4.24,-1.04 4.24,-2.29 0,-0.35 0,-0.96 -0.36,-2.44 -0.09,-0.25 -0.14,-0.41 -0.14,-0.55 0,-0.25 0.19,-0.55 0.64,-0.55 0.41,0 0.55,0.25 0.75,0.99 l 2.84,11.67 c 0,0.3 -0.25,0.55 -0.61,0.55 -0.43,0 -0.54,-0.3 -0.68,-0.91 -1.05,-3.78 -1.96,-4.92 -6.54,-4.92 h -4.68 l 3,12 c 0.43,1.75 0.5,1.94 2.68,1.94 h 7.02 c 6.08,0 7.58,-1.44 7.58,-5.53 0,-1.19 0,-1.29 -0.2,-2.64 0,-0.3 -0.05,-0.65 -0.05,-0.9 0,-0.25 0.15,-0.59 0.59,-0.59 0.56,0 0.61,0.3 0.71,1.25 l 1,8.61 c 0.14,1.34 -0.1,1.34 -1.35,1.34 h -25.15 c -1,0 -1.5,0 -1.5,-1 0,-0.54 0.45,-0.54 1.39,-0.54 1.84,0 3.23,0 3.23,-0.89 0,-0.21 0,-0.3 -0.25,-1.21 l -6.56,-26.34 c -0.5,-1.95 -0.61,-2.34 -4.55,-2.34 -0.84,0 -1.39,0 -1.39,-0.96 0,-0.59 0.45,-0.59 1.39,-0.59 h 25.86 c 1.16,0 1.2,0.05 1.55,0.84 z"
             inkscape:connector-curvature="0"
             style="fill:#000000;stroke-width:0" /><path
             id="path7546"
             d="m 503.91,420.92 v 0.04 0.04 0.05 0.04 0.03 0.04 0.04 0.03 l -0.01,0.04 v 0.03 0.03 0.03 0.03 l -0.01,0.03 v 0.03 l -0.01,0.02 v 0.03 0.02 l -0.01,0.03 v 0.02 l -0.02,0.04 -0.01,0.04 -0.02,0.03 -0.02,0.03 -0.02,0.03 -0.02,0.03 -0.03,0.02 -0.03,0.02 -0.04,0.02 -0.03,0.01 -0.04,0.01 -0.05,0.02 h -0.02 -0.03 l -0.02,0.01 h -0.03 l -0.03,0.01 h -0.02 -0.03 -0.03 -0.04 l -0.03,0.01 h -0.03 -0.04 -0.04 -0.03 -0.04 -0.04 -0.04 -0.05 -0.04 -0.05 c -2.23,-2.2 -5.39,-2.23 -6.82,-2.23 v -1.25 c 0.84,0 3.14,0 5.04,0.97 v -17.77 c 0,-1.16 0,-1.61 -3.48,-1.61 h -1.31 v -1.25 c 0.62,0.03 4.9,0.14 6.2,0.14 1.08,0 5.47,-0.11 6.23,-0.14 v 1.25 h -1.33 c -3.48,0 -3.48,0.45 -3.48,1.61 z"
             inkscape:connector-curvature="0"
             style="fill:#000000;stroke-width:0" /></g>      </g>
      <rect
         style="opacity:1;fill:none;fill-opacity:1;stroke:#000000;stroke-width:0.30000001;stroke-miterlimit:4;stroke-dasharray:none;stroke-dashoffset:0"
         id="rect3119-8-4"
         width="8.3220139"
         height="5.9382896"
         x="42.642612"
         y="242.4649" />
    </g>
    <g
       id="g8310"
       transform="translate(-13.040498,9.2463516)">
      <g
         id="g7212"
         transform="matrix(0.6,0,0,0.6,51.734217,217.81631)">
        <g
           id="g7210"
           transform="matrix(0.12095238,0,0,-0.12095238,-21.166667,95.25)"
           xml:space="preserve"
           stroke-miterlimit="10.433"
           font-style="normal"
           font-variant="normal"
           font-weight="normal"
           font-stretch="normal"
           font-size-adjust="none"
           letter-spacing="normal"
           word-spacing="normal"
           style="font-style:normal;font-variant:normal;font-weight:normal;font-stretch:normal;letter-spacing:normal;word-spacing:normal;text-anchor:start;fill:none;fill-opacity:1;fill-rule:evenodd;stroke:#000000;stroke-linecap:butt;stroke-linejoin:miter;stroke-miterlimit:10.43299961;stroke-dasharray:none;stroke-dashoffset:0;stroke-opacity:1"><path
             d="m 479.29,417.96 -0.01,0.37 -0.01,0.35 -0.02,0.35 -0.02,0.34 -0.06,0.65 -0.09,0.63 -0.11,0.59 -0.14,0.57 -0.15,0.54 -0.18,0.51 -0.19,0.49 -0.21,0.45 -0.23,0.44 -0.25,0.4 -0.26,0.38 -0.27,0.36 -0.29,0.33 -0.3,0.31 -0.31,0.29 -0.31,0.26 -0.33,0.24 -0.34,0.22 -0.34,0.2 -0.35,0.18 -0.35,0.16 -0.36,0.14 -0.35,0.12 -0.36,0.11 -0.37,0.09 -0.36,0.06 -0.36,0.06 -0.35,0.04 -0.35,0.02 h -0.35 l -0.05,-1.09 c 4.94,0 4.94,-6.53 4.94,-10.41 0,-1.84 0,-4.73 0.09,-5.57 v 0 c -4.37,-3.85 -8.22,-4.39 -10.2,-4.39 -3,0 -4.49,2.25 -4.49,5.43 0,2.44 1.3,7.82 2.89,10.36 2.33,3.64 5.04,4.58 6.77,4.58 l 0.05,1.09 c -6.82,0 -13.39,-7.12 -13.39,-14.14 0,-4.64 2.98,-8.42 8.06,-8.42 3.14,0 6.73,1.14 10.51,4.19 0.66,-2.64 2.3,-4.19 4.54,-4.19 2.64,0 4.18,2.74 4.18,3.53 0,0.36 -0.29,0.5 -0.59,0.5 -0.36,0 -0.5,-0.14 -0.66,-0.5 -0.89,-2.43 -2.68,-2.43 -2.78,-2.43 -1.54,0 -1.54,3.89 -1.54,5.07 0,1.05 0,1.16 0.5,1.75 4.68,5.88 5.73,11.66 5.73,11.71 0,0.11 -0.06,0.5 -0.61,0.5 -0.5,0 -0.5,-0.14 -0.75,-1.05 -0.89,-3.14 -2.53,-6.92 -4.87,-9.86 z"
             id="path7206"
             inkscape:connector-curvature="0"
             style="fill:#000000;stroke-width:0" /><path
             d="m 499.11,420.92 v 0.04 0.04 0.05 0.04 0.03 0.04 0.04 0.03 0.04 0.03 l -0.01,0.03 v 0.03 0.03 0.03 l -0.01,0.03 v 0.02 l -0.01,0.03 v 0.02 l -0.01,0.03 v 0.02 l -0.01,0.04 -0.02,0.04 -0.02,0.03 -0.01,0.03 -0.03,0.03 -0.02,0.03 -0.03,0.02 -0.03,0.02 -0.03,0.02 -0.04,0.01 -0.04,0.01 -0.04,0.02 h -0.03 -0.02 l -0.03,0.01 h -0.02 l -0.03,0.01 h -0.03 -0.03 -0.03 -0.03 l -0.04,0.01 h -0.03 -0.04 -0.03 -0.04 -0.04 -0.04 -0.04 -0.04 -0.05 -0.04 c -2.24,-2.2 -5.39,-2.23 -6.83,-2.23 v -1.25 c 0.84,0 3.14,0 5.05,0.97 v -17.77 c 0,-1.16 0,-1.61 -3.49,-1.61 h -1.31 v -1.25 c 0.62,0.03 4.9,0.14 6.2,0.14 1.08,0 5.47,-0.11 6.24,-0.14 v 1.25 h -1.33 c -3.49,0 -3.49,0.45 -3.49,1.61 z"
             id="path7208"
             inkscape:connector-curvature="0"
             style="fill:#000000;stroke-width:0" /></g>      </g>
      <rect
         style="opacity:1;fill:none;fill-opacity:1;stroke:#000000;stroke-width:0.30000001;stroke-miterlimit:4;stroke-dasharray:none;stroke-dashoffset:0"
         id="rect3119-8-3"
         width="8.3220139"
         height="5.9382896"
         x="69.761925"
         y="241.98997" />
    </g>
    <g
       id="g8348"
       transform="translate(0,-1.1806837)">
      <path
         style="fill:none;stroke:#000000;stroke-width:0.40000001;stroke-linecap:butt;stroke-linejoin:miter;stroke-miterlimit:4;stroke-dasharray:none;stroke-opacity:1"
         d="m 46.754749,248.32539 c 0,1.85401 0,1.85401 0,1.85401"
         id="path3652-2-9-2-1"
         inkscape:connector-curvature="0" />
      <path
         style="fill:none;stroke:#000000;stroke-width:0.40000001;stroke-linecap:butt;stroke-linejoin:miter;stroke-miterlimit:4;stroke-dasharray:none;stroke-opacity:1"
         d="m 75.010118,248.35899 c 0,1.85401 0,1.85401 0,1.85401"
         id="path3652-2-9-7-4"
         inkscape:connector-curvature="0" />
      <path
         inkscape:connector-curvature="0"
         id="path3975-9"
         d="m 46.591272,250.17958 28.421814,0.0332 v 0"
         style="fill:none;stroke:#000000;stroke-width:0.40000001;stroke-linecap:butt;stroke-linejoin:miter;stroke-miterlimit:4;stroke-dasharray:none;stroke-opacity:1" />
      <path
         style="fill:none;stroke:#000000;stroke-width:0.40000001;stroke-linecap:butt;stroke-linejoin:miter;stroke-miterlimit:4;stroke-dasharray:none;stroke-opacity:1"
         d="m 60.882434,250.413 c 0,1.85401 0,1.85401 0,1.85401"
         id="path3652-2-9-7-0-2"
         inkscape:connector-curvature="0" />
    </g>
    <path
       style="fill:none;stroke:#000000;stroke-width:0.40000001;stroke-linecap:butt;stroke-linejoin:miter;stroke-miterlimit:4;stroke-dasharray:none;stroke-opacity:1"
       d="M 33.293641,254.20547 H 56.608876"
       id="path4098-6-0"
       inkscape:connector-curvature="0"
       sodipodi:nodetypes="cc" />
    <text
       xml:space="preserve"
       style="font-style:normal;font-weight:normal;font-size:2.46944427px;line-height:1.25;font-family:sans-serif;text-align:center;letter-spacing:0px;word-spacing:0px;text-anchor:middle;fill:#000000;fill-opacity:1;stroke:none;stroke-width:0.26458332"
       x="35.74062"
       y="262.21497"
       id="text4102-8"><tspan
         sodipodi:role="line"
         x="35.74062"
         y="262.21497"
         style="text-align:center;text-anchor:middle;stroke-width:0.26458332"
         id="tspan4112-6">Is C2 satisfied?</tspan></text>
    <g
       id="g8606">
      <rect
         rx="2"
         ry="2"
         y="259.09546"
         x="20.795116"
         height="14.136909"
         width="30.133369"
         id="rect4129-4"
         style="opacity:1;fill:none;fill-opacity:1;stroke:#000000;stroke-width:0.31;stroke-linejoin:round;stroke-miterlimit:4;stroke-dasharray:none;stroke-dashoffset:0;paint-order:markers fill stroke" />
    </g>
    <path
       inkscape:connector-curvature="0"
       id="path3652-2-9-7-7-9"
       d="m 28.982634,257.32462 c 0,1.85401 0,1.85401 0,1.85401"
       style="fill:none;stroke:#000000;stroke-width:0.40000001;stroke-linecap:butt;stroke-linejoin:miter;stroke-miterlimit:4;stroke-dasharray:none;stroke-opacity:1" />
  </g>
</svg>
